<svg width="200" height="200" viewBox="0 0 200 200" fill="none" xmlns="http://www.w3.org/2000/svg">
<g clip-path="url(#clip0_275_5504)">
<path d="M93.9988 198C26.0092 198 4.4988 163.5 2.4988 129C0.498791 94.5 31.4988 81.4999 38.9988 68.4999C46.4988 55.5 32.4988 44.5 52.9988 22.5C73.4988 0.49998 120.711 5.37867 139.499 18C158.286 30.6213 163.821 60.7353 156.499 79C149.177 97.2646 194.499 93.9999 198.499 138.5C202.499 183 161.988 198 93.9988 198Z" fill="#14AD52"/>
<circle cx="101" cy="108" r="41" fill="#12A34C"/>
<circle opacity="0.5" cx="101" cy="108" r="62" fill="#12A34C"/>
<path d="M9.86225 45.8489C7.9642 36.442 22.2896 33.2804 24.5952 42.5997C24.8036 43.4426 24.9376 44.3834 24.9795 45.4333C25.4258 56.633 18.509 68.8248 11.1459 66.7721C3.78279 64.7194 8.02219 57.07 10.2534 52.4805C11.2945 50.3389 10.3518 48.2749 9.86225 45.8489Z" fill="#14AD52"/>
<path d="M170.879 33.0143C168.238 36.0767 171.968 42.9634 176.502 44.639C181.036 46.3148 183.741 41.8943 180.723 36.7793C179.434 34.5945 173.519 29.952 170.879 33.0143Z" fill="#14AD52"/>
<path d="M43.6561 109.293C46.6441 109.881 58.5829 125.879 58.5829 125.879L59.0039 126.986C59.0039 126.986 37.4043 124.584 36.622 123.661C34.5098 121.168 41.2011 108.81 43.6561 109.293ZM58.4317 126.219C54.4903 121.182 45.51 113.825 43.5691 112.263C41.8362 114.031 39.2259 119.248 38.8814 121.606C41.3633 122.117 52.1295 125.458 58.4317 126.219Z" fill="#FF9D0B"/>
<path d="M72.5895 112.024C78.4656 108.19 80.0789 108.22 81.7909 109.191C83.503 110.162 89.8169 119.22 86.9949 122.045C84.1732 124.871 61.7893 126.885 61.7893 126.885L61.2845 125.516C61.2845 125.516 66.7137 115.857 72.5895 112.024ZM83.1053 121.049C84.4103 119.747 81.1615 114.324 79.68 113.17C79.3024 112.957 64.2432 122.539 62.1421 125.811C70.5469 124.902 81.8895 122.129 83.1053 121.049Z" fill="#FF9D0B"/>
<path d="M61.611 131.13H60.3514C59.1029 131.13 58.0914 130.119 58.0914 128.871V125.165C58.0914 123.917 59.1029 122.905 60.3514 122.905H61.611C62.8591 122.905 63.8711 123.917 63.8711 125.165V128.871C63.8711 130.119 62.8593 131.13 61.611 131.13Z" fill="#FF9D0B"/>
<path d="M13.8634 127.054L116.261 126.747C118.986 126.739 121.076 129.164 120.668 131.859L119.083 142.309L113.951 142.298L110.858 194.881C110.692 197.695 108.363 199.892 105.546 199.892H23.8157L20.4163 142.104L15.5815 142.094L13.8634 127.054Z" fill="#9A253A"/>
<path d="M22.0664 199.893H84.8007L88.1602 128.144H13.6253L16.751 194.905C16.8816 197.696 19.2226 199.893 22.0664 199.893Z" fill="#C22323"/>
<path d="M10.5473 142.13L91.4616 142.344L93.3086 126.776L14.0437 127.08C11.4404 127.09 9.40346 129.326 9.63514 131.919L10.5473 142.13Z" fill="#C22323"/>
<path d="M91.4609 142.344L14.2858 142.13L89.0132 146.21L91.4609 142.344Z" fill="#9A253A"/>
<path d="M58.9504 126.897H61.0977V142.273H58.9504V126.897Z" fill="#FF9D0B"/>
<path d="M52.1872 142.201H54.8711V200H52.1872V142.201Z" fill="#FF9D0B"/>
<path d="M112.977 100.741C105.83 103.515 99.9442 105.382 94.0737 106.942C92.138 107.456 88.9323 108.921 87.1506 107.617C86.2243 106.939 85.8358 105.918 86.3801 104.833C87.3785 102.845 90.4621 102.703 92.413 102.183C98.3585 100.599 105.011 98.5247 111.612 96.0384C112.85 95.5722 114.298 96.5081 114.646 97.7077C115.043 99.0727 114.213 100.262 112.977 100.741Z" fill="#FF9D0B"/>
<path d="M67.2277 89.76C69.3366 73.6119 69.1987 73.5701 70.0938 72.0464C71.0112 70.4845 73.5222 70.6982 74.018 72.5063C74.5074 74.2931 74.3956 74.0074 72.1136 90.9901C71.9317 92.3406 70.2692 93.1236 69.0557 92.8181C67.607 92.4532 67.0504 91.1152 67.2277 89.76Z" fill="#FFD977"/>
<path d="M41.2631 91.8333C39.6654 89.6772 38.3163 87.3755 37.2128 84.9282C36.1877 82.6551 34.3094 79.3076 36.0701 77.0555C36.4483 76.5722 37.3386 76.3411 37.9099 76.538C40.2977 77.362 40.7535 80.7107 41.7075 82.804C42.7491 85.0873 44.0356 87.2599 45.4481 89.3313C46.1906 90.4195 45.6898 92.0277 44.6065 92.6748C43.3834 93.4065 42.0498 92.8945 41.2631 91.8333Z" fill="#FFE8AE"/>
<path d="M5.31919 104.106C4.59615 103.115 5.20343 101.829 6.05219 101.195C7.80049 99.8906 10.8843 101.094 12.7915 101.62C15.013 102.232 17.156 103.061 19.2488 104.021C20.4563 104.575 20.7896 106.288 20.1755 107.373C19.4566 108.643 18.0544 108.812 16.8241 108.299C8.78905 104.953 7.10338 106.554 5.31919 104.106Z" fill="#FFD977"/>
<path d="M170.93 114.45C164.544 114.759 159.496 117.025 159.496 117.025C157.722 123.672 157.23 131.963 157.23 131.963C157.23 131.963 153.651 129.308 150.077 126.769C146.503 124.23 136.221 113.609 132.874 108.415C129.527 103.221 122.352 95.0448 120.845 92.9013C119.339 90.7578 114.242 89.8307 111.519 88.8134C110.024 88.2544 107.859 88.2741 106.063 88.4245C106.38 83.795 106.857 80.5381 107.557 79.7186C110.905 75.8009 115.565 75.7488 115.565 75.7488C115.565 75.7488 121.614 76.1041 125.083 75.8379C125.712 75.7893 126.34 75.7175 126.951 75.6191C125.792 78.1515 124.065 82.1816 123.305 85.2891C122.106 90.1849 123.005 97.679 138.292 98.3781C150.944 98.9567 158.326 85.6421 160.495 81.0357C161.563 81.6283 162.562 82.0808 163.431 82.3714C168.01 83.8979 171.749 82.6769 175.107 83.9743C178.465 85.2718 181.975 87.1792 181.975 87.1792C186.372 91.3735 185.013 100.363 185.477 105.753C185.941 111.143 188.358 113.467 187.15 115.603C186.355 117.011 183.223 118.579 181.176 119.487C181.921 117.179 182.362 115.739 182.362 115.739C182.362 115.739 177.316 114.141 170.93 114.45Z" fill="#E7816D"/>
<path d="M107.794 122.569C107.001 117.814 108.317 109.053 108.317 109.053C108.317 109.053 108.317 109.053 110.192 109.053C112.067 109.053 113.878 110.41 115.559 111.445C117.24 112.48 118.85 112.595 121.206 114.025C123.561 115.455 128.693 123.447 132.899 130.177C137.105 136.908 143.017 145.865 151.771 154.722C159.58 162.624 162.147 159.295 166.557 153.295C167.244 156.424 167.984 159.794 168.609 162.668C169.904 168.617 171.956 178.954 172.653 183.459C172.846 184.71 171.98 185.862 170.742 186.047C170.707 186.053 170.675 186.064 170.639 186.069C168.352 186.303 164.13 186.731 159.513 186.834C148.231 187.087 143.617 185.73 129.598 183.412C118.703 181.611 106.651 178.743 102.248 177.553C102.206 177.541 102.17 177.522 102.131 177.508C101.119 177.165 100.552 176.082 100.878 175.049C101.8 172.136 104.616 166.489 106.639 161.665C109.509 154.822 110.577 149.51 110.577 149.51C110.577 149.51 110.864 148.421 111.36 140.794C111.855 133.167 108.587 127.323 107.794 122.569Z" fill="#E7816D"/>
<path d="M98.2364 184.589C99.1322 182.383 101 179.298 102.131 177.509C102.172 177.523 102.207 177.542 102.248 177.554C106.653 178.743 118.704 181.611 129.598 183.413C143.618 185.731 148.231 187.087 159.513 186.835C164.13 186.732 168.352 186.304 170.639 186.07C170.675 186.067 170.707 186.054 170.742 186.048L170.639 186.07C170.639 186.07 152.002 198.5 135.002 200C118.002 201.5 134.266 217.638 134.266 217.638C134.266 217.638 136.113 227.31 136.113 234.047C136.113 240.786 137.743 255.891 140.243 267.628C142.743 279.365 140.404 286.543 141.173 292.835C141.944 299.125 144.768 315.816 144.768 327.627C144.768 339.438 145.305 352.345 145.305 352.345C145.305 352.345 142.641 353.688 138.582 353.896C134.523 354.104 132.191 353.854 132.191 353.854C132.191 353.854 120.306 316.216 119.22 308.86C118.134 301.502 118.376 286.668 117.291 281.724C116.205 276.779 100.472 236.295 97.1635 218.59C93.8545 200.886 96.9019 187.873 98.2364 184.589Z" fill="#33344E"/>
<path d="M157.469 79.0919C157.128 78.8454 156.788 78.5896 156.447 78.3223C156.788 78.5885 157.13 78.8454 157.469 79.0919Z" fill="#FF916E"/>
<path d="M159.391 80.3803C159.109 80.2067 158.826 80.025 158.539 79.8352C158.826 80.0262 159.109 80.2067 159.391 80.3803Z" fill="#FF916E"/>
<path d="M158.441 79.7706C158.125 79.5588 157.808 79.3377 157.489 79.1074C157.808 79.3389 158.125 79.5588 158.441 79.7706Z" fill="#FF916E"/>
<path d="M160.496 81.0337C160.186 80.8612 159.869 80.6749 159.548 80.4805C159.869 80.6761 160.186 80.8612 160.496 81.0337Z" fill="#FF916E"/>
<path d="M138.293 98.3767C123.006 97.6776 122.107 90.1835 123.306 85.2878C124.067 82.1802 125.793 78.1501 126.953 75.6178C127.326 75.5576 127.692 75.487 128.05 75.406C130.329 74.8909 132.179 73.9419 132.557 72.3678C133.09 70.1445 132.112 66.5855 132.112 66.5855C132.112 66.5855 124.506 62.7638 122.258 53.3785C119.587 42.2225 120.671 37.5153 120.805 35.0038C120.937 32.4923 121.977 29.3801 121.977 29.3801C121.977 29.3801 125.183 28.725 126.505 27.2701C127.826 25.8165 129.295 23.0723 129.295 23.0723C129.295 23.0723 131.773 27.9588 134.293 30.1995C136.812 32.439 140.452 32.8869 143.141 34.9031C145.829 36.9193 147.229 39.9991 147.229 39.9991C147.229 39.9991 151.485 38.4308 152.885 43.0789C154.286 47.727 149.47 48.3427 149.47 48.3427C149.47 48.3427 144.584 60.1597 147.636 67.4859C149.413 71.7498 152.921 75.568 156.446 78.3203C156.788 78.5865 157.128 78.8434 157.468 79.0899C157.475 79.0957 157.483 79.1003 157.49 79.1061C157.81 79.3364 158.127 79.5575 158.443 79.7693C158.474 79.7901 158.507 79.8133 158.539 79.8341C158.826 80.0251 159.11 80.2057 159.391 80.3793C159.443 80.4117 159.496 80.4464 159.548 80.4788C159.869 80.6744 160.186 80.8607 160.496 81.032C158.327 85.6408 150.945 98.9554 138.293 98.3767Z" fill="#FDB1A9"/>
<path d="M163.431 82.3687C162.562 82.0793 161.563 81.6256 160.495 81.0331C159.211 80.3213 157.827 79.4011 156.445 78.3213C152.92 75.569 149.412 71.7508 147.635 67.487C144.583 60.1607 149.468 48.3437 149.468 48.3437C149.468 48.3437 154.284 47.728 152.884 43.0799C151.484 38.4318 147.228 40.0001 147.228 40.0001C147.228 40.0001 145.827 36.9203 143.14 34.9041C140.452 32.888 136.812 32.44 134.292 30.2005C131.772 27.961 129.294 23.0733 129.294 23.0733C129.294 23.0733 127.825 25.8163 126.504 27.2711C125.182 28.7248 121.976 29.3811 121.976 29.3811C121.976 29.3811 120.937 32.4933 120.803 35.0048C120.671 37.5164 119.586 42.2223 122.257 53.3795C124.505 62.7648 132.111 66.5865 132.111 66.5865C132.111 66.5865 133.089 70.1443 132.556 72.3688C132.178 73.9429 130.328 74.8919 128.049 75.407C127.692 75.488 127.325 75.5586 126.951 75.6188C126.34 75.7172 125.712 75.7901 125.083 75.8375C121.615 76.1049 115.565 75.7484 115.565 75.7484C115.565 75.7484 113.342 75.0366 111.206 67.1201C109.071 59.2035 112.719 56.001 116.543 47.9062C120.368 39.8115 116.454 26.0246 119.746 20.7759C123.037 15.5283 129.708 15.6162 133.266 15.2609C136.824 14.9056 144.385 11.7031 154.17 17.1289C163.954 22.5548 165.131 35.543 170.121 43.5822C175.11 51.6215 183.705 47.463 188.417 63.4037C193.13 79.3433 181.974 87.1765 181.974 87.1765C181.974 87.1765 178.463 85.2691 175.106 83.9717C171.749 82.6742 168.01 83.8953 163.431 82.3687Z" fill="#33344E"/>
<path d="M134.641 185.773C133.998 187.692 133.63 189.699 133.472 191.732C133.373 193.766 133.254 195.719 133.032 197.72C132.837 199.711 132.591 201.7 132.348 203.689C132.229 204.685 132.084 205.671 131.92 206.664C131.79 207.665 131.629 208.658 131.527 209.665C132.126 207.737 132.674 205.797 133.075 203.809C133.491 201.829 133.766 199.826 133.984 197.816C134.185 195.816 134.283 193.748 134.204 191.758C134.209 189.772 134.385 187.775 134.641 185.773Z" fill="#E5E5E5"/>
<path d="M130.523 212.32C129.942 211.329 129.58 210.241 129.337 209.136C129.076 208.037 128.916 206.915 128.858 205.788C128.731 203.523 128.926 201.296 129.209 199.01C129.446 196.721 129.618 194.424 129.657 192.122C129.703 189.821 129.687 187.516 129.457 185.224C129.289 187.518 129.122 189.801 128.922 192.081C128.71 194.36 128.514 196.637 128.257 198.907C128 201.172 127.817 203.544 128.129 205.855C128.441 208.146 129.049 210.513 130.523 212.32Z" fill="#E5E5E5"/>
<path d="M121.277 204.081C119.924 202.457 118.182 201.21 116.311 200.235C115.367 199.76 114.372 199.376 113.347 199.104C112.323 198.826 111.25 198.723 110.201 198.771C112.209 199.401 114.062 200.159 115.879 201.09C117.698 202.005 119.45 203.042 121.277 204.081Z" fill="#E5E5E5"/>
<path d="M113.816 182.02C112.804 183.109 111.661 184.028 110.447 184.816C109.224 185.589 107.946 186.261 106.6 186.778C105.248 187.274 103.861 187.687 102.429 187.951C101.001 188.247 99.54 188.359 98.0539 188.519C98.7889 188.627 99.5342 188.703 100.282 188.758C101.027 188.731 101.785 188.78 102.532 188.68C104.041 188.581 105.516 188.175 106.944 187.67C108.352 187.105 109.7 186.367 110.877 185.41C112.054 184.463 113.119 183.349 113.816 182.02Z" fill="#E5E5E5"/>
<path d="M116.516 182.02C115.435 183.528 114.14 184.837 112.715 185.96C111.281 187.068 109.744 188.037 108.086 188.757C107.25 189.088 106.425 189.473 105.545 189.693C105.111 189.819 104.68 189.965 104.24 190.077C103.795 190.163 103.351 190.26 102.907 190.362C101.12 190.743 99.2902 190.852 97.4314 190.99C98.3504 191.102 99.2809 191.192 100.215 191.24C101.144 191.187 102.092 191.245 103.02 191.089C104.901 190.924 106.725 190.347 108.474 189.631C110.202 188.854 111.814 187.806 113.192 186.516C113.886 185.877 114.51 185.166 115.094 184.434C115.633 183.664 116.163 182.884 116.516 182.02Z" fill="#E5E5E5"/>
<path d="M171.074 180.51C168.256 180.885 165.425 181.064 162.593 181.104C159.764 181.201 156.932 181.135 154.108 180.994C148.46 180.7 142.836 180.087 137.252 179.209C134.467 178.723 131.673 178.279 128.916 177.645C127.536 177.343 126.137 177.107 124.768 176.751L120.643 175.742C119.259 175.436 117.897 175.049 116.536 174.655L112.443 173.496C109.718 172.71 107.035 171.784 104.297 170.995C106.92 172.09 109.562 173.15 112.223 174.166L116.273 175.525C117.621 175.984 118.974 176.437 120.349 176.81C125.809 178.462 131.395 179.675 137.024 180.629C142.667 181.481 148.364 182.063 154.076 182.095C159.777 182.112 165.523 181.82 171.074 180.51Z" fill="#DA6967"/>
<path d="M186.07 113.167C184.429 112.071 182.539 111.386 180.622 110.91C178.699 110.433 176.715 110.211 174.731 110.187C172.751 110.227 170.763 110.358 168.839 110.828C166.906 111.23 165.039 111.899 163.273 112.748C164.257 112.639 165.201 112.431 166.16 112.3C167.122 112.189 168.062 112.002 169.02 111.934C169.496 111.891 169.972 111.844 170.444 111.784L171.873 111.704C172.821 111.616 173.774 111.638 174.723 111.623C176.624 111.618 178.52 111.77 180.412 112.007C182.305 112.265 184.19 112.617 186.07 113.167Z" fill="#DA6967"/>
<path d="M163.273 83.3652C162.501 85.0388 161.64 86.6568 160.626 88.1742C159.645 89.7089 158.548 91.1603 157.344 92.5028C154.944 95.1787 152.084 97.468 148.799 98.8129C147.183 99.5363 145.439 99.9761 143.675 100.275C141.914 100.622 140.102 100.684 138.295 100.743C134.672 100.757 131.016 100.405 127.405 99.6775C130.87 100.945 134.546 101.689 138.274 101.864C141.988 102.018 145.833 101.637 149.356 100.135C152.88 98.6578 155.88 96.1544 158.197 93.2204C160.541 90.2934 162.261 86.9115 163.273 83.3652Z" fill="#DA6967"/>
<path d="M122.762 77.082C121.902 77.8563 121.226 78.795 120.654 79.7822C120.074 80.7706 119.638 81.8366 119.291 82.9338C118.959 84.0345 118.761 85.1838 118.724 86.3377C118.669 87.4893 118.838 88.6582 119.206 89.7439C119.435 88.6062 119.582 87.5344 119.836 86.4743C120.09 85.421 120.33 84.3736 120.666 83.3458C121.274 81.2706 122.04 79.2545 122.762 77.082Z" fill="#DA6967"/>
<path d="M169.18 90.209C169.18 90.209 163.24 99.1707 161.364 106.881C159.488 114.593 159.493 117.025 159.493 117.025C159.493 117.025 158.244 122.177 157.83 125.902C157.416 129.626 157.228 131.963 157.228 131.963C157.228 131.963 155.639 123.316 159.043 110.164C162.447 97.0098 169.18 90.209 169.18 90.209Z" fill="#DA6967"/>
<path d="M115.557 111.446C117.238 112.481 118.848 112.597 121.204 114.026C123.559 115.457 128.691 123.448 132.897 130.179C137.103 136.909 143.015 145.866 151.769 154.723C159.578 162.625 162.145 159.296 166.555 153.296L167.648 158.289C167.648 158.289 163.019 164.523 157.066 163.962C148.402 163.144 134.456 135.151 130.429 129.054C121.57 115.641 108.314 109.053 108.314 109.053C108.314 109.053 108.314 109.053 110.189 109.053C112.064 109.053 113.875 110.412 115.557 111.446Z" fill="#DA6967"/>
<path d="M92.9214 102.188C92.9214 100.974 92.242 101.266 92.242 100.197C92.242 99.1292 93.8438 98.8386 93.9896 97.9162C94.1355 96.9938 93.5533 96.7021 93.7952 95.4892C94.0382 94.2751 96.0764 93.4024 96.0764 93.4024C96.0764 93.4024 93.1158 92.2855 93.6494 90.1987C94.0545 88.6143 95.5776 88.708 96.691 88.9511C97.0451 89.0286 97.3588 89.12 97.581 89.1791C98.5035 89.4221 101.415 90.3932 101.415 90.3932C101.415 90.3932 102.095 88.9337 102.969 88.8145C103.362 88.7601 104.589 88.5495 106.064 88.4256C107.342 88.318 108.807 88.2821 110.084 88.4696C110.6 88.5448 111.089 88.6536 111.518 88.8145C114.24 89.833 119.339 90.7601 120.845 92.9024C122.35 95.0459 129.525 103.222 132.873 108.416C136.22 113.61 146.504 124.231 150.077 126.77C153.651 129.309 157.229 131.964 157.229 131.964C157.229 131.964 157.721 123.673 159.496 117.026C159.496 117.026 164.543 114.76 170.929 114.451C177.316 114.142 182.363 115.738 182.363 115.738C182.363 115.738 181.922 117.177 181.178 119.485C178.639 127.358 172.552 145.361 168.251 151.016C167.651 151.807 167.09 152.57 166.556 153.297C162.146 159.297 159.579 162.625 151.77 154.724C143.014 145.866 137.104 136.909 132.898 130.18C128.692 123.449 123.56 115.458 121.204 114.027C118.849 112.597 117.239 112.482 115.558 111.447C113.876 110.413 112.066 109.055 110.191 109.055C108.316 109.055 108.316 109.055 108.316 109.055C108.316 109.055 107.001 117.816 107.793 122.571C108.585 127.325 111.854 133.169 111.359 140.796C110.863 148.424 110.576 149.513 110.576 149.513C110.576 149.513 107.992 153.276 105.713 153.178C103.435 153.079 98.1852 149.712 97.1945 140.698C96.2037 131.684 98.4826 122.77 98.4826 118.609C98.4826 114.45 98.8935 111.211 96.3692 109.055C93.845 106.899 92.0001 106.219 92.0001 104.859C92.0001 103.499 92.9214 103.402 92.9214 102.188Z" fill="#FDB1A9"/>
<path d="M147.581 42.5636C147.94 41.8761 148.66 41.2453 149.495 41.3206C149.235 41.6215 149.066 41.9166 148.889 42.1805C148.835 42.2719 148.79 42.3622 148.739 42.4525C149.176 42.5543 149.547 42.8009 149.851 43.1122C150.239 43.5462 150.558 44.1712 150.346 44.8298C150.1 44.6157 149.873 44.4617 149.69 44.2846C149.495 44.118 149.324 43.9409 149.15 43.7638C148.919 43.5057 148.693 43.2407 148.489 42.9016C148.472 42.9351 148.451 42.9664 148.433 43.0011C148.14 43.5578 147.903 44.1504 147.475 44.8298C147.321 44.4629 147.246 44.0728 147.277 43.6886C147.3 43.3032 147.404 42.9201 147.581 42.5636Z" fill="#33344E"/>
<path d="M132.112 66.5861C132.112 66.5861 135.191 67.0352 138.226 65.6973C141.26 64.3593 144.719 61.6406 144.719 61.6406C144.719 61.6406 141.96 65.8998 138.583 67.4542C135.147 69.0363 132.597 69.0931 132.597 69.0931C132.489 68.3558 132.112 66.5861 132.112 66.5861Z" fill="#33344E"/>
<path d="M157.231 131.963C157.231 131.963 161.187 134.321 163.021 136.94C164.855 139.56 164.855 139.56 164.855 139.56C164.855 139.56 163.916 133.809 161.043 131.399C157.575 128.49 157.523 128.553 157.523 128.553L157.231 131.963Z" fill="#33344E"/>
<path d="M182.359 115.736C182.359 115.736 177.258 114.104 171.517 114.426C163.988 114.848 159.493 117.023 159.493 117.023C159.493 117.023 164.713 118.281 172.371 119.204C180.03 120.126 180.973 120.109 180.973 120.109L182.359 115.736Z" fill="#33344E"/>
<path d="M108.055 123.852C108.055 123.852 111.584 133.64 111.558 138.456C111.533 143.271 110.575 149.511 110.575 149.511C110.575 149.511 110.177 139.251 108.974 134.056C107.771 128.862 107.771 128.862 107.771 128.862L108.055 123.852Z" fill="#33344E"/>
<path d="M109.112 89.7441C108.914 89.9583 108.901 90.1504 108.872 90.346C108.9 90.5427 108.913 90.7349 109.112 90.9548C109.311 90.7719 109.324 90.5601 109.352 90.3529C109.324 90.1458 109.31 89.934 109.112 89.7441Z" fill="#33344E"/>
<path d="M96.6926 88.9509C95.9449 87.2507 94.4716 84.0228 93.5248 81.9568C93.1163 81.0656 93.7679 80.0518 94.7482 80.0518H104.821C105.942 80.0518 106.951 80.73 107.372 81.7693C108.201 83.8144 109.542 87.1223 110.086 88.4695C108.807 88.282 107.344 88.3178 106.065 88.4255C104.591 88.5493 103.365 88.76 102.97 88.8144C102.096 88.9347 101.417 90.393 101.417 90.393C101.417 90.393 98.5051 89.422 97.5826 89.1789C97.3604 89.1199 97.0468 89.0285 96.6926 88.9509Z" fill="#33344E"/>
<path d="M102.347 92.6184C103.318 92.7376 104.341 92.6543 105.351 92.5849C105.866 92.5652 106.352 92.5131 106.894 92.5154C107.436 92.527 107.965 92.6497 108.448 92.858C109.389 93.2538 110.214 93.8568 110.897 94.5813C111.673 94.5698 112.45 94.5559 113.227 94.527C111.35 94.6832 109.471 94.8256 107.587 94.8834C106.075 94.9239 104.56 94.9529 103.043 94.8857C104.421 95.5003 105.801 96.1103 107.168 96.7549L108.437 97.3834C108.856 97.5443 109.388 98.0153 109.438 98.5558C109.545 99.0848 109.423 99.6044 109.207 100.064C108.979 100.511 108.622 100.949 108.084 101.114C107.629 101.233 107.234 101.172 106.842 101.107C107.117 101.255 107.375 101.437 107.584 101.694C108.098 102.352 107.995 103.243 107.839 103.959C107.812 104.128 107.753 104.294 107.683 104.457C108.052 104.268 108.435 104.161 108.817 104.048C109.32 103.956 109.818 103.851 110.369 103.923C109.92 104.233 109.419 104.366 108.922 104.514C108.48 104.595 108.038 104.68 107.579 104.652C107.303 105.145 106.849 105.557 106.282 105.687C106.051 105.75 105.819 105.766 105.589 105.762C105.691 106.101 105.783 106.44 105.878 106.772C106.001 107.144 106.081 107.644 106.261 107.889C106.429 108.19 106.795 108.39 107.149 108.574C107.514 108.755 107.908 108.901 108.315 109.053C107.879 109.096 107.443 109.039 107.016 108.917C106.596 108.785 106.163 108.571 105.861 108.152C105.716 107.921 105.673 107.683 105.627 107.484C105.583 107.271 105.529 107.06 105.517 106.843C105.481 106.482 105.477 106.119 105.513 105.757C105.317 105.749 105.124 105.727 104.933 105.691C104.789 106.386 104.546 107.066 104.103 107.669C103.883 108.004 103.441 108.291 103.018 108.331C102.611 108.396 102.215 108.411 101.822 108.411C100.251 108.349 98.706 108.155 97.1956 107.752C98.7557 107.763 100.297 107.928 101.827 107.933C102.208 107.946 102.591 107.945 102.95 107.901C103.312 107.876 103.557 107.699 103.823 107.431C104.266 106.942 104.586 106.315 104.879 105.68C104.562 105.616 104.254 105.535 103.969 105.465L99.6573 104.301C98.2233 103.901 96.7974 103.468 95.375 103.013C96.8402 103.299 98.2997 103.607 99.7522 103.947L104.101 105.005C104.831 105.197 105.504 105.433 106.176 105.263C106.842 105.119 107.305 104.551 107.48 103.869C107.673 103.178 107.796 102.417 107.392 101.827C107.175 101.486 106.842 101.237 106.473 101.036C106.046 100.952 105.624 100.851 105.206 100.741C104.293 100.498 103.392 100.219 102.496 99.9273C100.706 99.3429 98.9467 98.6716 97.1956 97.9876C98.9768 98.5894 100.777 99.1357 102.576 99.6692C103.477 99.9331 104.381 100.185 105.291 100.4C105.746 100.506 106.204 100.604 106.66 100.677C107.105 100.734 107.599 100.83 107.962 100.717C108.708 100.454 109.162 99.4297 109.003 98.6438C108.921 98.2179 108.67 97.9864 108.229 97.7908L106.964 97.1832L101.914 94.8302C101.745 94.8753 101.568 94.8996 101.386 94.8996C101.046 94.8996 100.733 94.8452 100.414 94.7978C99.1724 94.5142 97.971 94.1311 96.8437 93.5466C98.0925 93.7515 99.2928 94.1068 100.506 94.3279C101.117 94.4633 101.691 94.5536 102.208 94.3082C102.67 94.1219 102.951 93.6311 103.032 93.0814C102.782 93.0617 102.531 93.0304 102.28 92.983C102.021 92.9217 101.753 92.8453 101.511 92.6682C101.251 92.4772 101.17 92.1717 101.121 91.9147C101.061 91.3719 101.191 90.8499 101.415 90.3916C101.146 91.3245 101.212 92.6601 102.347 92.6184ZM103.095 93.1346C103.097 93.1057 103.097 93.101 103.098 93.0872C103.095 93.0872 103.092 93.0872 103.089 93.0872C103.091 93.1034 103.094 93.1184 103.095 93.1346Z" fill="#33344E"/>
<path d="M104.5 11C104.5 11 103.305 23.1583 94 23.9998C103.304 24.841 104.5 37 104.5 37C104.5 37 105.696 24.8414 115 23.9998C105.696 23.1586 104.5 11 104.5 11Z" fill="white"/>
<path d="M115.5 1C115.5 1 114.76 8.0144 109 8.4999C114.76 8.98521 115.5 16 115.5 16C115.5 16 116.24 8.98541 122 8.4999C116.24 8.0146 115.5 1 115.5 1Z" fill="white"/>
<path d="M187.5 168C187.5 168 186.988 173.144 183 173.5C186.988 173.856 187.5 179 187.5 179C187.5 179 188.012 173.856 192 173.5C188.012 173.144 187.5 168 187.5 168Z" fill="white"/>
<path d="M179.5 152C179.5 152 178.418 161.82 170 162.5C178.418 163.179 179.5 173 179.5 173C179.5 173 180.582 163.18 189 162.5C180.582 161.82 179.5 152 179.5 152Z" fill="white"/>
<path d="M34.5001 168C34.5001 168 33.4185 177.82 25 178.5C33.4182 179.179 34.5001 189 34.5001 189C34.5001 189 35.5818 179.18 44 178.5C35.5818 177.82 34.5001 168 34.5001 168Z" fill="white"/>
</g>
<defs>
<clipPath id="clip0_275_5504">
<rect width="200" height="200" fill="white"/>
</clipPath>
</defs>
</svg>
