<svg width="200" height="200" viewBox="0 0 200 200" fill="none" xmlns="http://www.w3.org/2000/svg">
<g clip-path="url(#clip0_275_5227)">
<mask id="mask0_275_5227" style="mask-type:alpha" maskUnits="userSpaceOnUse" x="16" y="7" width="172" height="190">
<path d="M139.214 16.0003C110.927 5.00027 44.0015 -0.999786 25.0015 39.0002C6.00147 79.0002 36.0015 89.0002 33.5015 111C31.0015 133 11.0015 138.5 18.0015 165.5C25.0015 192.5 55.0015 191 77.0015 188C99.0015 185 112.501 206.5 148.501 191.5C184.501 176.5 191.823 157.265 184.501 139C177.18 120.736 176.001 104 182.001 78.5003C188.001 53.0003 167.501 27.0003 139.214 16.0003Z" fill="#14AD52"/>
</mask>
<g mask="url(#mask0_275_5227)">
<path d="M139.214 16.0003C110.927 5.00027 44.0015 -0.999786 25.0015 39.0002C6.00147 79.0002 36.0015 89.0002 33.5015 111C31.0015 133 11.0015 138.5 18.0015 165.5C25.0015 192.5 55.0015 191 77.0015 188C99.0015 185 112.501 206.5 148.501 191.5C184.501 176.5 191.823 157.265 184.501 139C172.501 113.5 175.001 103.5 182.001 78.5003C189.001 53.5002 167.501 27.0003 139.214 16.0003Z" fill="#14AD52"/>
<path d="M207.933 218.852L153.133 229.309L146.251 217.938C143.814 213.91 139.853 211.053 135.276 209.951C130.964 208.913 125.001 206.672 118.713 201.848C106.478 192.461 98.8162 181.348 98.8162 181.348L132.746 174.701C132.746 174.701 126.065 156.287 138.129 127.834C139.42 124.789 139.624 121.391 138.724 118.208L133.613 100.112C133.613 100.112 119.696 89.482 123.699 72.2361C123.699 72.2361 128.65 61.6344 131.971 64.536C131.971 64.536 161.536 109.063 164.76 115.907C167.985 122.751 171.316 126.804 173.165 149.896C173.654 156.009 174.373 161.048 175.165 165.153C176.685 173.033 179.93 180.478 184.661 186.961L207.933 218.852Z" fill="#FFC0BB"/>
</g>
<path d="M15.2041 107.913C13.7083 100.345 26.2534 98.1357 28.0704 105.634C28.2347 106.312 28.3403 107.069 28.3733 107.913C28.725 116.924 24.0068 125.28 18.2041 123.628C12.4014 121.977 13.754 116.942 15.5124 113.249C16.3328 111.526 15.5899 109.865 15.2041 107.913Z" fill="#14AD52"/>
<path d="M131.172 24.0374L101.418 114.092L159.62 133.322L189.375 43.2676L131.172 24.0374Z" fill="#FCFCFC"/>
<path d="M105.327 115.247L101.393 113.927L100.668 116.442L105.327 115.247Z" fill="#FCFCFC"/>
<path d="M108.718 116.375L104.785 115.056L105.609 119.122L108.718 116.375Z" fill="#FCFCFC"/>
<path d="M112.108 117.504L108.176 116.186L109 120.25L112.108 117.504Z" fill="#FCFCFC"/>
<path d="M115.499 118.632L111.566 117.314L112.391 121.38L115.499 118.632Z" fill="#FCFCFC"/>
<path d="M118.889 119.762L114.957 118.442L115.782 122.508L118.889 119.762Z" fill="#FCFCFC"/>
<path d="M122.285 120.892L118.352 119.572L119.176 123.637L122.285 120.892Z" fill="#FCFCFC"/>
<path d="M125.678 122.021L121.746 120.701L122.57 124.766L125.678 122.021Z" fill="#FCFCFC"/>
<path d="M129.069 123.148L125.137 121.83L125.961 125.895L129.069 123.148Z" fill="#FCFCFC"/>
<path d="M132.46 124.277L128.527 122.958L129.35 127.024L132.46 124.277Z" fill="#FCFCFC"/>
<path d="M135.848 125.406L131.914 124.088L132.74 128.153L135.848 125.406Z" fill="#FCFCFC"/>
<path d="M139.242 126.535L135.309 125.216L136.132 129.282L139.242 126.535Z" fill="#FCFCFC"/>
<path d="M142.632 127.664L138.699 126.345L139.523 130.411L142.632 127.664Z" fill="#FCFCFC"/>
<path d="M146.026 128.792L142.094 127.474L142.917 131.54L146.026 128.792Z" fill="#FCFCFC"/>
<path d="M149.416 129.922L145.484 128.603L146.307 132.669L149.416 129.922Z" fill="#FCFCFC"/>
<path d="M152.809 131.051L148.875 129.732L149.7 133.798L152.809 131.051Z" fill="#FCFCFC"/>
<path d="M156.197 132.18L152.266 130.861L153.089 134.926L156.197 132.18Z" fill="#FCFCFC"/>
<path d="M159.591 133.31L155.66 131.991L158.503 136.658L159.591 133.31Z" fill="#FCFCFC"/>
<path d="M185.438 41.9923L189.371 43.3026L190.504 39.9331L185.438 41.9923Z" fill="#FCFCFC"/>
<path d="M182.048 40.872L185.982 42.1814L185.149 38.1195L182.048 40.872Z" fill="#FCFCFC"/>
<path d="M178.654 39.7503L182.587 41.06L181.756 36.9986L178.654 39.7503Z" fill="#FCFCFC"/>
<path d="M175.267 38.6292L179.2 39.9385L178.369 35.8775L175.267 38.6292Z" fill="#FCFCFC"/>
<path d="M171.873 37.5071L175.806 38.8171L174.974 34.7553L171.873 37.5071Z" fill="#FCFCFC"/>
<path d="M168.478 36.3857L172.412 37.6954L171.58 33.6343L168.478 36.3857Z" fill="#FCFCFC"/>
<path d="M165.087 35.2653L169.021 36.575L168.188 32.5131L165.087 35.2653Z" fill="#FCFCFC"/>
<path d="M161.693 34.1442L165.627 35.454L164.795 31.3921L161.693 34.1442Z" fill="#FCFCFC"/>
<path d="M158.302 33.0228L162.236 34.3328L161.404 30.271L158.302 33.0228Z" fill="#FCFCFC"/>
<path d="M154.912 31.9017L158.846 33.2114L158.013 29.1498L154.912 31.9017Z" fill="#FCFCFC"/>
<path d="M151.517 30.7806L155.451 32.0903L154.619 28.0288L151.517 30.7806Z" fill="#FCFCFC"/>
<path d="M148.127 29.6582L152.061 30.9686L151.228 26.9067L148.127 29.6582Z" fill="#FCFCFC"/>
<path d="M144.736 28.5371L148.67 29.8473L147.838 25.7857L144.736 28.5371Z" fill="#FCFCFC"/>
<path d="M141.341 27.416L145.275 28.726L144.443 24.6645L141.341 27.416Z" fill="#FCFCFC"/>
<path d="M137.951 26.2946L141.884 27.6043L141.052 23.5424L137.951 26.2946Z" fill="#FCFCFC"/>
<path d="M134.56 25.1741L138.493 26.4834L137.66 22.4221L134.56 25.1741Z" fill="#FCFCFC"/>
<path d="M131.165 24.0527L135.099 25.3621L132.246 20.5023L131.165 24.0527Z" fill="#FCFCFC"/>
<path d="M133.636 42.6316L133.297 43.668L176.071 57.6472L176.41 56.6109L133.636 42.6316Z" fill="#838383"/>
<path d="M118.417 89.1941L118.078 90.2295L160.853 104.209L161.191 103.173L118.417 89.1941Z" fill="#838383"/>
<path d="M131.586 48.9078L130.379 52.6006L145.302 57.4775L146.508 53.7848L131.586 48.9078Z" fill="#838383"/>
<path d="M167.351 60.5966L166.145 64.29L172.292 66.2984L173.499 62.605L167.351 60.5966Z" fill="#838383"/>
<path d="M145.069 69.2137C144.773 69.1168 144.553 68.9276 144.41 68.646C144.267 68.3644 144.244 68.0754 144.341 67.7791C144.438 67.4827 144.627 67.2631 144.909 67.1202C145.191 66.9774 145.48 66.9544 145.776 67.0512C146.072 67.148 146.292 67.3373 146.435 67.6189C146.578 67.9005 146.601 68.1895 146.504 68.4858C146.44 68.682 146.331 68.8459 146.177 68.9773C146.027 69.1101 145.854 69.1997 145.657 69.2462C145.465 69.2899 145.269 69.2791 145.069 69.2137ZM149.727 70.736C149.431 70.6392 149.211 70.45 149.069 70.1684C148.926 69.8868 148.903 69.5978 149 69.3015C149.096 69.0051 149.286 68.7855 149.567 68.6426C149.849 68.4998 150.138 68.4767 150.434 68.5736C150.73 68.6704 150.95 68.8597 151.093 69.1413C151.236 69.4229 151.259 69.7118 151.162 70.0082C151.098 70.2044 150.989 70.3683 150.835 70.4997C150.685 70.6325 150.512 70.7221 150.315 70.7686C150.124 70.8123 149.928 70.8015 149.727 70.736ZM154.386 72.2584C154.089 72.1616 153.87 71.9724 153.727 71.6908C153.584 71.4092 153.561 71.1202 153.658 70.8239C153.755 70.5275 153.944 70.3079 154.226 70.165C154.507 70.0222 154.796 69.9991 155.092 70.096C155.389 70.1928 155.608 70.3821 155.751 70.6637C155.894 70.9453 155.917 71.2342 155.82 71.5306C155.756 71.7268 155.647 71.8906 155.493 72.0221C155.344 72.1549 155.17 72.2445 154.973 72.291C154.782 72.3347 154.586 72.3239 154.386 72.2584ZM138.235 90.1248C137.939 90.0279 137.719 89.8387 137.576 89.5571C137.433 89.2755 137.41 88.9865 137.507 88.6902C137.604 88.3938 137.793 88.1742 138.075 88.0314C138.357 87.8885 138.645 87.8655 138.942 87.9623C139.238 88.0592 139.458 88.2484 139.601 88.53C139.744 88.8116 139.767 89.1006 139.67 89.3969C139.606 89.5931 139.497 89.757 139.343 89.8884C139.193 90.0212 139.02 90.1108 138.823 90.1573C138.631 90.201 138.435 90.1902 138.235 90.1248ZM142.893 91.6472C142.597 91.5503 142.377 91.3611 142.235 91.0795C142.092 90.7979 142.069 90.5089 142.166 90.2126C142.262 89.9162 142.452 89.6966 142.733 89.5538C143.015 89.4109 143.304 89.3879 143.6 89.4847C143.896 89.5816 144.116 89.7708 144.259 90.0524C144.402 90.334 144.425 90.623 144.328 90.9193C144.264 91.1155 144.155 91.2794 144.001 91.4108C143.851 91.5436 143.678 91.6332 143.481 91.6797C143.29 91.7234 143.094 91.7126 142.893 91.6472ZM147.552 93.1696C147.255 93.0727 147.036 92.8835 146.893 92.6019C146.75 92.3203 146.727 92.0313 146.824 91.735C146.921 91.4386 147.11 91.219 147.391 91.0762C147.673 90.9333 147.962 90.9103 148.258 91.0071C148.555 91.104 148.774 91.2932 148.917 91.5748C149.06 91.8564 149.083 92.1454 148.986 92.4417C148.922 92.6379 148.813 92.8018 148.659 92.9332C148.51 93.066 148.336 93.1556 148.139 93.2021C147.948 93.2458 147.752 93.235 147.552 93.1696ZM131.401 111.036C131.105 110.939 130.885 110.75 130.742 110.468C130.599 110.187 130.576 109.898 130.673 109.601C130.77 109.305 130.959 109.085 131.241 108.942C131.522 108.8 131.811 108.777 132.108 108.873C132.404 108.97 132.624 109.16 132.767 109.441C132.909 109.723 132.932 110.012 132.836 110.308C132.772 110.504 132.663 110.668 132.509 110.8C132.359 110.932 132.186 111.022 131.989 111.068C131.797 111.112 131.601 111.101 131.401 111.036ZM136.059 112.558C135.763 112.461 135.543 112.272 135.401 111.991C135.258 111.709 135.235 111.42 135.331 111.124C135.428 110.827 135.618 110.608 135.899 110.465C136.181 110.322 136.47 110.299 136.766 110.396C137.062 110.493 137.282 110.682 137.425 110.964C137.568 111.245 137.591 111.534 137.494 111.83C137.43 112.027 137.321 112.19 137.167 112.322C137.017 112.455 136.844 112.544 136.647 112.591C136.455 112.635 136.26 112.624 136.059 112.558ZM140.718 114.081C140.421 113.984 140.202 113.795 140.059 113.513C139.916 113.231 139.893 112.942 139.99 112.646C140.087 112.35 140.276 112.13 140.557 111.987C140.839 111.844 141.128 111.821 141.424 111.918C141.721 112.015 141.94 112.204 142.083 112.486C142.226 112.768 142.249 113.056 142.152 113.353C142.088 113.549 141.979 113.713 141.825 113.844C141.676 113.977 141.502 114.067 141.305 114.113C141.114 114.157 140.918 114.146 140.718 114.081ZM124.567 131.947C124.271 131.85 124.051 131.661 123.908 131.379C123.765 131.098 123.742 130.809 123.839 130.512C123.936 130.216 124.125 129.996 124.407 129.854C124.688 129.711 124.977 129.688 125.274 129.785C125.57 129.881 125.79 130.071 125.933 130.352C126.075 130.634 126.098 130.923 126.002 131.219C125.937 131.415 125.828 131.579 125.675 131.711C125.525 131.843 125.352 131.933 125.155 131.98C124.963 132.023 124.767 132.012 124.567 131.947ZM129.225 133.469C128.929 133.373 128.709 133.183 128.566 132.902C128.424 132.62 128.401 132.331 128.497 132.035C128.594 131.738 128.783 131.519 129.065 131.376C129.347 131.233 129.636 131.21 129.932 131.307C130.228 131.404 130.448 131.593 130.591 131.875C130.734 132.156 130.757 132.445 130.66 132.742C130.596 132.938 130.487 133.102 130.333 133.233C130.183 133.366 130.01 133.455 129.813 133.502C129.621 133.546 129.425 133.535 129.225 133.469ZM133.884 134.992C133.587 134.895 133.368 134.706 133.225 134.424C133.082 134.143 133.059 133.854 133.156 133.557C133.253 133.261 133.442 133.041 133.723 132.898C134.005 132.756 134.294 132.732 134.59 132.829C134.887 132.926 135.106 133.115 135.249 133.397C135.392 133.679 135.415 133.968 135.318 134.264C135.254 134.46 135.145 134.624 134.991 134.755C134.842 134.888 134.668 134.978 134.471 135.024C134.28 135.068 134.084 135.057 133.884 134.992Z" fill="#838383"/>
<path d="M129.508 55.2724L128.301 58.9648L143.223 63.8418L144.43 60.1493L129.508 55.2724Z" fill="#838383"/>
<path d="M165.281 66.9655L164.074 70.6582L170.221 72.6672L171.428 68.9745L165.281 66.9655Z" fill="#838383"/>
<path d="M142.991 75.5769C142.695 75.4801 142.475 75.2909 142.332 75.0093C142.189 74.7277 142.166 74.4387 142.263 74.1423C142.36 73.846 142.549 73.6264 142.831 73.4835C143.112 73.3407 143.401 73.3176 143.698 73.4145C143.994 73.5113 144.214 73.7006 144.357 73.9822C144.499 74.2638 144.522 74.5527 144.426 74.8491C144.361 75.0453 144.253 75.2091 144.099 75.3406C143.949 75.4734 143.776 75.563 143.579 75.6095C143.387 75.6532 143.191 75.6424 142.991 75.5769ZM147.649 77.0993C147.353 77.0025 147.133 76.8133 146.99 76.5317C146.848 76.25 146.825 75.9611 146.921 75.6647C147.018 75.3684 147.208 75.1488 147.489 75.0059C147.771 74.863 148.06 74.84 148.356 74.9369C148.652 75.0337 148.872 75.2229 149.015 75.5046C149.158 75.7862 149.181 76.0751 149.084 76.3715C149.02 76.5677 148.911 76.7315 148.757 76.863C148.607 76.9958 148.434 77.0854 148.237 77.1318C148.045 77.1756 147.85 77.1648 147.649 77.0993ZM152.308 78.6217C152.011 78.5249 151.792 78.3357 151.649 78.054C151.506 77.7724 151.483 77.4835 151.58 77.1871C151.677 76.8908 151.866 76.6712 152.147 76.5283C152.429 76.3854 152.718 76.3624 153.014 76.4593C153.311 76.5561 153.53 76.7453 153.673 77.0269C153.816 77.3086 153.839 77.5975 153.742 77.8939C153.678 78.0901 153.569 78.2539 153.415 78.3854C153.266 78.5182 153.092 78.6078 152.895 78.6542C152.704 78.698 152.508 78.6872 152.308 78.6217ZM136.157 96.4881C135.861 96.3912 135.641 96.202 135.498 95.9204C135.355 95.6388 135.332 95.3498 135.429 95.0535C135.526 94.7571 135.715 94.5375 135.997 94.3946C136.278 94.2518 136.567 94.2288 136.864 94.3256C137.16 94.4224 137.38 94.6117 137.523 94.8933C137.665 95.1749 137.688 95.4639 137.592 95.7602C137.527 95.9564 137.418 96.1203 137.265 96.2517C137.115 96.3845 136.942 96.4741 136.745 96.5206C136.553 96.5643 136.357 96.5535 136.157 96.4881ZM140.815 98.0104C140.519 97.9136 140.299 97.7244 140.156 97.4428C140.014 97.1612 139.991 96.8722 140.087 96.5759C140.184 96.2795 140.373 96.0599 140.655 95.917C140.937 95.7742 141.226 95.7511 141.522 95.848C141.818 95.9448 142.038 96.1341 142.181 96.4157C142.324 96.6973 142.347 96.9862 142.25 97.2826C142.186 97.4788 142.077 97.6427 141.923 97.7741C141.773 97.9069 141.6 97.9965 141.403 98.043C141.211 98.0867 141.015 98.0759 140.815 98.0104ZM145.474 99.5328C145.177 99.436 144.958 99.2468 144.815 98.9652C144.672 98.6836 144.649 98.3946 144.746 98.0983C144.843 97.8019 145.032 97.5823 145.313 97.4394C145.595 97.2966 145.884 97.2735 146.18 97.3704C146.477 97.4672 146.696 97.6565 146.839 97.9381C146.982 98.2197 147.005 98.5086 146.908 98.805C146.844 99.0012 146.735 99.165 146.581 99.2965C146.432 99.4293 146.258 99.5189 146.061 99.5654C145.87 99.6091 145.674 99.5983 145.474 99.5328ZM129.323 117.399C129.027 117.302 128.807 117.113 128.664 116.831C128.521 116.55 128.498 116.261 128.595 115.965C128.692 115.668 128.881 115.449 129.163 115.306C129.444 115.163 129.733 115.14 130.03 115.237C130.326 115.334 130.546 115.523 130.688 115.804C130.831 116.086 130.854 116.375 130.758 116.671C130.693 116.868 130.584 117.031 130.431 117.163C130.281 117.296 130.108 117.385 129.911 117.432C129.719 117.475 129.523 117.465 129.323 117.399ZM133.981 118.922C133.685 118.825 133.465 118.635 133.322 118.354C133.18 118.072 133.156 117.783 133.253 117.487C133.35 117.191 133.539 116.971 133.821 116.828C134.103 116.685 134.392 116.662 134.688 116.759C134.984 116.856 135.204 117.045 135.347 117.327C135.49 117.608 135.513 117.897 135.416 118.194C135.352 118.39 135.243 118.554 135.089 118.685C134.939 118.818 134.766 118.908 134.569 118.954C134.377 118.998 134.181 118.987 133.981 118.922ZM138.639 120.444C138.343 120.347 138.124 120.158 137.981 119.876C137.838 119.595 137.815 119.306 137.912 119.009C138.008 118.713 138.198 118.493 138.479 118.351C138.761 118.208 139.05 118.185 139.346 118.282C139.643 118.378 139.862 118.568 140.005 118.849C140.148 119.131 140.171 119.42 140.074 119.716C140.01 119.912 139.901 120.076 139.747 120.208C139.597 120.34 139.424 120.43 139.227 120.476C139.036 120.52 138.84 120.509 138.639 120.444ZM122.489 138.31C122.193 138.213 121.973 138.024 121.83 137.743C121.687 137.461 121.664 137.172 121.761 136.876C121.858 136.579 122.047 136.36 122.329 136.217C122.61 136.074 122.899 136.051 123.196 136.148C123.492 136.245 123.712 136.434 123.854 136.716C123.997 136.997 124.02 137.286 123.923 137.582C123.859 137.779 123.75 137.942 123.597 138.074C123.447 138.207 123.273 138.296 123.077 138.343C122.885 138.387 122.689 138.376 122.489 138.31ZM127.147 139.833C126.851 139.736 126.631 139.547 126.488 139.265C126.345 138.983 126.322 138.694 126.419 138.398C126.516 138.102 126.705 137.882 126.987 137.739C127.269 137.596 127.558 137.573 127.854 137.67C128.15 137.767 128.37 137.956 128.513 138.238C128.656 138.52 128.679 138.808 128.582 139.105C128.518 139.301 128.409 139.465 128.255 139.596C128.105 139.729 127.932 139.819 127.735 139.865C127.543 139.909 127.347 139.898 127.147 139.833ZM131.805 141.355C131.509 141.258 131.289 141.069 131.147 140.787C131.004 140.506 130.981 140.217 131.078 139.92C131.174 139.624 131.364 139.405 131.645 139.262C131.927 139.119 132.216 139.096 132.512 139.193C132.808 139.289 133.028 139.479 133.171 139.76C133.314 140.042 133.337 140.331 133.24 140.627C133.176 140.823 133.067 140.987 132.913 141.119C132.763 141.252 132.59 141.341 132.393 141.388C132.202 141.431 132.006 141.421 131.805 141.355Z" fill="#838383"/>
<path d="M127.422 61.6305L126.215 65.3232L141.138 70.2004L142.345 66.5076L127.422 61.6305Z" fill="#838383"/>
<path d="M163.199 73.3278L161.992 77.0205L168.14 79.0297L169.347 75.337L163.199 73.3278Z" fill="#838383"/>
<path d="M140.909 81.9402C140.613 81.8434 140.393 81.6541 140.25 81.3725C140.107 81.0909 140.084 80.802 140.181 80.5056C140.278 80.2093 140.467 79.9897 140.749 79.8468C141.03 79.7039 141.319 79.6809 141.616 79.7778C141.912 79.8746 142.132 80.0638 142.275 80.3454C142.417 80.627 142.44 80.916 142.344 81.2124C142.279 81.4086 142.171 81.5724 142.017 81.7039C141.867 81.8367 141.694 81.9263 141.497 81.9727C141.305 82.0165 141.109 82.0057 140.909 81.9402ZM145.567 83.4626C145.271 83.3658 145.051 83.1765 144.908 82.8949C144.766 82.6133 144.743 82.3244 144.839 82.028C144.936 81.7317 145.125 81.5121 145.407 81.3692C145.689 81.2263 145.978 81.2033 146.274 81.3002C146.57 81.397 146.79 81.5862 146.933 81.8678C147.076 82.1494 147.099 82.4384 147.002 82.7347C146.938 82.931 146.829 83.0948 146.675 83.2263C146.525 83.3591 146.352 83.4487 146.155 83.4951C145.963 83.5389 145.768 83.528 145.567 83.4626ZM150.226 84.985C149.929 84.8882 149.71 84.6989 149.567 84.4173C149.424 84.1357 149.401 83.8468 149.498 83.5504C149.595 83.2541 149.784 83.0345 150.065 82.8916C150.347 82.7487 150.636 82.7257 150.932 82.8226C151.229 82.9194 151.448 83.1086 151.591 83.3902C151.734 83.6718 151.757 83.9608 151.66 84.2571C151.596 84.4534 151.487 84.6172 151.333 84.7487C151.184 84.8815 151.01 84.9711 150.813 85.0175C150.622 85.0613 150.426 85.0504 150.226 84.985ZM134.075 102.851C133.779 102.754 133.559 102.565 133.416 102.284C133.273 102.002 133.25 101.713 133.347 101.417C133.444 101.12 133.633 100.901 133.915 100.758C134.196 100.615 134.485 100.592 134.782 100.689C135.078 100.786 135.298 100.975 135.44 101.257C135.583 101.538 135.606 101.827 135.51 102.123C135.445 102.32 135.336 102.484 135.183 102.615C135.033 102.748 134.86 102.837 134.663 102.884C134.471 102.928 134.275 102.917 134.075 102.851ZM138.733 104.374C138.437 104.277 138.217 104.088 138.074 103.806C137.932 103.524 137.909 103.235 138.005 102.939C138.102 102.643 138.291 102.423 138.573 102.28C138.855 102.137 139.144 102.114 139.44 102.211C139.736 102.308 139.956 102.497 140.099 102.779C140.242 103.061 140.265 103.35 140.168 103.646C140.104 103.842 139.995 104.006 139.841 104.137C139.691 104.27 139.518 104.36 139.321 104.406C139.129 104.45 138.933 104.439 138.733 104.374ZM143.392 105.896C143.095 105.799 142.876 105.61 142.733 105.328C142.59 105.047 142.567 104.758 142.664 104.462C142.76 104.165 142.95 103.946 143.231 103.803C143.513 103.66 143.802 103.637 144.098 103.734C144.395 103.831 144.614 104.02 144.757 104.301C144.9 104.583 144.923 104.872 144.826 105.168C144.762 105.364 144.653 105.528 144.499 105.66C144.349 105.793 144.176 105.882 143.979 105.929C143.788 105.972 143.592 105.962 143.392 105.896ZM127.241 123.762C126.945 123.666 126.725 123.476 126.582 123.195C126.439 122.913 126.416 122.624 126.513 122.328C126.61 122.032 126.799 121.812 127.081 121.669C127.362 121.526 127.651 121.503 127.948 121.6C128.244 121.697 128.464 121.886 128.606 122.168C128.749 122.449 128.772 122.738 128.675 123.035C128.611 123.231 128.502 123.395 128.349 123.526C128.199 123.659 128.026 123.749 127.829 123.795C127.637 123.839 127.441 123.828 127.241 123.762ZM131.899 125.285C131.603 125.188 131.383 124.999 131.24 124.717C131.097 124.436 131.074 124.147 131.171 123.85C131.268 123.554 131.457 123.334 131.739 123.191C132.021 123.049 132.31 123.026 132.606 123.122C132.902 123.219 133.122 123.408 133.265 123.69C133.408 123.972 133.431 124.261 133.334 124.557C133.27 124.753 133.161 124.917 133.007 125.049C132.857 125.181 132.684 125.271 132.487 125.317C132.295 125.361 132.099 125.35 131.899 125.285ZM136.557 126.807C136.261 126.71 136.042 126.521 135.899 126.24C135.756 125.958 135.733 125.669 135.83 125.373C135.926 125.076 136.116 124.857 136.397 124.714C136.679 124.571 136.968 124.548 137.264 124.645C137.561 124.742 137.78 124.931 137.923 125.212C138.066 125.494 138.089 125.783 137.992 126.079C137.928 126.276 137.819 126.439 137.665 126.571C137.515 126.704 137.342 126.793 137.145 126.84C136.954 126.884 136.758 126.873 136.557 126.807ZM120.407 144.674C120.11 144.577 119.891 144.387 119.748 144.106C119.605 143.824 119.582 143.535 119.679 143.239C119.776 142.943 119.965 142.723 120.247 142.58C120.528 142.437 120.817 142.414 121.114 142.511C121.41 142.608 121.629 142.797 121.772 143.079C121.915 143.36 121.938 143.649 121.841 143.946C121.777 144.142 121.668 144.306 121.515 144.437C121.365 144.57 121.191 144.66 120.995 144.706C120.803 144.75 120.607 144.739 120.407 144.674ZM125.065 146.196C124.769 146.099 124.549 145.91 124.406 145.628C124.263 145.347 124.24 145.058 124.337 144.761C124.434 144.465 124.623 144.245 124.905 144.103C125.187 143.96 125.475 143.937 125.772 144.034C126.068 144.13 126.288 144.32 126.431 144.601C126.574 144.883 126.597 145.172 126.5 145.468C126.436 145.664 126.327 145.828 126.173 145.96C126.023 146.092 125.85 146.182 125.653 146.228C125.461 146.272 125.265 146.261 125.065 146.196ZM129.723 147.718C129.427 147.622 129.207 147.432 129.065 147.151C128.922 146.869 128.899 146.58 128.996 146.284C129.092 145.987 129.282 145.768 129.563 145.625C129.845 145.482 130.134 145.459 130.43 145.556C130.726 145.653 130.946 145.842 131.089 146.124C131.232 146.405 131.255 146.694 131.158 146.99C131.094 147.187 130.985 147.351 130.831 147.482C130.681 147.615 130.508 147.704 130.311 147.751C130.12 147.795 129.924 147.784 129.723 147.718Z" fill="#838383"/>
<path d="M125.343 67.996L124.137 71.6885L139.059 76.5654L140.266 72.873L125.343 67.996Z" fill="#838383"/>
<path d="M161.121 79.6901L159.914 83.3828L166.062 85.3926L167.269 81.6999L161.121 79.6901Z" fill="#838383"/>
<path d="M138.831 88.3025C138.535 88.2057 138.315 88.0164 138.172 87.7348C138.029 87.4532 138.006 87.1643 138.103 86.8679C138.2 86.5716 138.389 86.352 138.671 86.2091C138.952 86.0662 139.241 86.0432 139.538 86.1401C139.834 86.2369 140.054 86.4261 140.196 86.7077C140.339 86.9893 140.362 87.2783 140.265 87.5747C140.201 87.7709 140.092 87.9347 139.939 88.0662C139.789 88.199 139.616 88.2886 139.419 88.335C139.227 88.3788 139.031 88.368 138.831 88.3025ZM143.489 89.8249C143.193 89.7281 142.973 89.5388 142.83 89.2572C142.687 88.9756 142.664 88.6867 142.761 88.3903C142.858 88.094 143.047 87.8744 143.329 87.7315C143.611 87.5886 143.9 87.5656 144.196 87.6625C144.492 87.7593 144.712 87.9485 144.855 88.2301C144.998 88.5117 145.021 88.8007 144.924 89.0971C144.86 89.2933 144.751 89.4571 144.597 89.5886C144.447 89.7214 144.274 89.811 144.077 89.8574C143.885 89.9012 143.689 89.8904 143.489 89.8249ZM148.147 91.3473C147.851 91.2505 147.632 91.0612 147.489 90.7796C147.346 90.498 147.323 90.2091 147.42 89.9127C147.516 89.6164 147.706 89.3968 147.987 89.2539C148.269 89.111 148.558 89.088 148.854 89.1849C149.151 89.2817 149.37 89.4709 149.513 89.7525C149.656 90.0341 149.679 90.3231 149.582 90.6194C149.518 90.8157 149.409 90.9795 149.255 91.111C149.105 91.2438 148.932 91.3334 148.735 91.3798C148.544 91.4236 148.348 91.4127 148.147 91.3473ZM131.997 109.214C131.7 109.117 131.481 108.928 131.338 108.646C131.195 108.364 131.172 108.075 131.269 107.779C131.366 107.483 131.555 107.263 131.837 107.12C132.118 106.977 132.407 106.954 132.704 107.051C133 107.148 133.219 107.337 133.362 107.619C133.505 107.9 133.528 108.189 133.431 108.486C133.367 108.682 133.258 108.846 133.105 108.977C132.955 109.11 132.781 109.2 132.585 109.246C132.393 109.29 132.197 109.279 131.997 109.214ZM136.655 110.736C136.359 110.639 136.139 110.45 135.996 110.168C135.853 109.887 135.83 109.598 135.927 109.301C136.024 109.005 136.213 108.786 136.495 108.643C136.777 108.5 137.065 108.477 137.362 108.574C137.658 108.67 137.878 108.86 138.021 109.141C138.164 109.423 138.187 109.712 138.09 110.008C138.026 110.204 137.917 110.368 137.763 110.5C137.613 110.632 137.44 110.722 137.243 110.769C137.051 110.812 136.855 110.801 136.655 110.736ZM141.313 112.258C141.017 112.162 140.797 111.972 140.655 111.691C140.512 111.409 140.489 111.12 140.586 110.824C140.682 110.528 140.872 110.308 141.153 110.165C141.435 110.022 141.724 109.999 142.02 110.096C142.316 110.193 142.536 110.382 142.679 110.664C142.822 110.945 142.845 111.234 142.748 111.531C142.684 111.727 142.575 111.891 142.421 112.022C142.271 112.155 142.098 112.244 141.901 112.291C141.71 112.335 141.514 112.324 141.313 112.258ZM125.163 130.125C124.866 130.028 124.647 129.839 124.504 129.557C124.361 129.275 124.338 128.987 124.435 128.69C124.532 128.394 124.721 128.174 125.003 128.031C125.284 127.888 125.573 127.865 125.869 127.962C126.166 128.059 126.385 128.248 126.528 128.53C126.671 128.812 126.694 129.101 126.597 129.397C126.533 129.593 126.424 129.757 126.27 129.888C126.121 130.021 125.947 130.111 125.75 130.157C125.559 130.201 125.363 130.19 125.163 130.125ZM129.821 131.647C129.525 131.55 129.305 131.361 129.162 131.079C129.019 130.798 128.996 130.509 129.093 130.213C129.19 129.916 129.379 129.697 129.661 129.554C129.942 129.411 130.231 129.388 130.528 129.485C130.824 129.582 131.044 129.771 131.187 130.052C131.329 130.334 131.352 130.623 131.256 130.919C131.192 131.116 131.083 131.279 130.929 131.411C130.779 131.544 130.606 131.633 130.409 131.68C130.217 131.723 130.021 131.713 129.821 131.647ZM134.479 133.17C134.183 133.073 133.963 132.883 133.821 132.602C133.678 132.32 133.655 132.031 133.751 131.735C133.848 131.439 134.038 131.219 134.319 131.076C134.601 130.933 134.89 130.91 135.186 131.007C135.482 131.104 135.702 131.293 135.845 131.575C135.988 131.856 136.011 132.145 135.914 132.442C135.85 132.638 135.741 132.802 135.587 132.933C135.437 133.066 135.264 133.156 135.067 133.202C134.875 133.246 134.68 133.235 134.479 133.17ZM118.329 151.036C118.032 150.939 117.813 150.75 117.67 150.468C117.527 150.187 117.504 149.898 117.601 149.601C117.698 149.305 117.887 149.085 118.169 148.942C118.45 148.8 118.739 148.777 119.035 148.873C119.332 148.97 119.551 149.159 119.694 149.441C119.837 149.723 119.86 150.012 119.763 150.308C119.699 150.504 119.59 150.668 119.436 150.8C119.287 150.932 119.113 151.022 118.916 151.068C118.725 151.112 118.529 151.101 118.329 151.036ZM122.987 152.558C122.691 152.461 122.471 152.272 122.328 151.991C122.185 151.709 122.162 151.42 122.259 151.124C122.356 150.827 122.545 150.608 122.827 150.465C123.108 150.322 123.397 150.299 123.694 150.396C123.99 150.493 124.21 150.682 124.353 150.963C124.495 151.245 124.518 151.534 124.422 151.83C124.357 152.027 124.248 152.19 124.095 152.322C123.945 152.455 123.772 152.544 123.575 152.591C123.383 152.635 123.187 152.624 122.987 152.558ZM127.645 154.081C127.349 153.984 127.129 153.795 126.986 153.513C126.844 153.231 126.821 152.942 126.917 152.646C127.014 152.35 127.203 152.13 127.485 151.987C127.767 151.844 128.056 151.821 128.352 151.918C128.648 152.015 128.868 152.204 129.011 152.486C129.154 152.767 129.177 153.056 129.08 153.353C129.016 153.549 128.907 153.713 128.753 153.844C128.603 153.977 128.43 154.067 128.233 154.113C128.041 154.157 127.846 154.146 127.645 154.081Z" fill="#838383"/>
<path d="M123.265 74.3619L122.059 78.0547L136.981 82.9316L138.188 79.2389L123.265 74.3619Z" fill="#838383"/>
<path d="M159.043 86.0505L157.836 89.7441L163.984 91.754L165.191 88.0604L159.043 86.0505Z" fill="#838383"/>
<path d="M136.753 94.6668C136.456 94.5699 136.237 94.3807 136.094 94.0991C135.951 93.8175 135.928 93.5285 136.025 93.2322C136.122 92.9359 136.311 92.7162 136.593 92.5734C136.874 92.4305 137.163 92.4075 137.459 92.5043C137.756 92.6012 137.975 92.7904 138.118 93.072C138.261 93.3536 138.284 93.6426 138.187 93.9389C138.123 94.1351 138.014 94.299 137.86 94.4304C137.711 94.5632 137.537 94.6528 137.34 94.6993C137.149 94.7431 136.953 94.7322 136.753 94.6668ZM141.411 96.1892C141.115 96.0923 140.895 95.9031 140.752 95.6215C140.609 95.3399 140.586 95.0509 140.683 94.7546C140.78 94.4583 140.969 94.2386 141.251 94.0958C141.532 93.9529 141.821 93.9299 142.118 94.0267C142.414 94.1236 142.634 94.3128 142.777 94.5944C142.919 94.876 142.942 95.165 142.846 95.4613C142.781 95.6575 142.673 95.8214 142.519 95.9528C142.369 96.0856 142.196 96.1752 141.999 96.2217C141.807 96.2655 141.611 96.2546 141.411 96.1892ZM146.069 97.7116C145.773 97.6147 145.553 97.4255 145.41 97.1439C145.268 96.8623 145.245 96.5733 145.341 96.277C145.438 95.9806 145.628 95.761 145.909 95.6182C146.191 95.4753 146.48 95.4523 146.776 95.5491C147.072 95.646 147.292 95.8352 147.435 96.1168C147.578 96.3984 147.601 96.6874 147.504 96.9837C147.44 97.1799 147.331 97.3438 147.177 97.4752C147.027 97.608 146.854 97.6976 146.657 97.7441C146.465 97.7878 146.27 97.777 146.069 97.7116ZM129.919 115.578C129.622 115.481 129.403 115.292 129.26 115.01C129.117 114.729 129.094 114.44 129.191 114.143C129.288 113.847 129.477 113.627 129.759 113.484C130.04 113.342 130.329 113.319 130.625 113.415C130.922 113.512 131.141 113.702 131.284 113.983C131.427 114.265 131.45 114.554 131.353 114.85C131.289 115.046 131.18 115.21 131.026 115.342C130.877 115.474 130.703 115.564 130.506 115.61C130.315 115.654 130.119 115.643 129.919 115.578ZM134.577 117.1C134.281 117.003 134.061 116.814 133.918 116.533C133.775 116.251 133.752 115.962 133.849 115.666C133.946 115.369 134.135 115.15 134.417 115.007C134.698 114.864 134.987 114.841 135.284 114.938C135.58 115.035 135.8 115.224 135.943 115.506C136.085 115.787 136.108 116.076 136.012 116.372C135.947 116.569 135.838 116.732 135.685 116.864C135.535 116.997 135.362 117.086 135.165 117.133C134.973 117.177 134.777 117.166 134.577 117.1ZM139.235 118.623C138.939 118.526 138.719 118.337 138.576 118.055C138.434 117.773 138.411 117.484 138.507 117.188C138.604 116.892 138.793 116.672 139.075 116.529C139.357 116.386 139.646 116.363 139.942 116.46C140.238 116.557 140.458 116.746 140.601 117.028C140.744 117.31 140.767 117.598 140.67 117.895C140.606 118.091 140.497 118.255 140.343 118.386C140.193 118.519 140.02 118.609 139.823 118.655C139.631 118.699 139.435 118.688 139.235 118.623ZM123.085 136.489C122.788 136.392 122.569 136.203 122.426 135.921C122.283 135.64 122.26 135.351 122.357 135.054C122.454 134.758 122.643 134.538 122.924 134.396C123.206 134.253 123.495 134.23 123.791 134.327C124.088 134.423 124.307 134.613 124.45 134.894C124.593 135.176 124.616 135.465 124.519 135.761C124.455 135.957 124.346 136.121 124.192 136.253C124.043 136.385 123.869 136.475 123.672 136.522C123.481 136.565 123.285 136.554 123.085 136.489ZM127.743 138.011C127.447 137.915 127.227 137.725 127.084 137.444C126.941 137.162 126.918 136.873 127.015 136.577C127.112 136.28 127.301 136.061 127.583 135.918C127.864 135.775 128.153 135.752 128.45 135.849C128.746 135.946 128.966 136.135 129.108 136.417C129.251 136.698 129.274 136.987 129.178 137.284C129.113 137.48 129.004 137.644 128.851 137.775C128.701 137.908 128.528 137.997 128.331 138.044C128.139 138.088 127.943 138.077 127.743 138.011ZM132.401 139.534C132.105 139.437 131.885 139.248 131.742 138.966C131.6 138.685 131.576 138.396 131.673 138.099C131.77 137.803 131.959 137.583 132.241 137.44C132.523 137.298 132.812 137.275 133.108 137.371C133.404 137.468 133.624 137.657 133.767 137.939C133.91 138.221 133.933 138.51 133.836 138.806C133.772 139.002 133.663 139.166 133.509 139.297C133.359 139.43 133.186 139.52 132.989 139.566C132.797 139.61 132.601 139.599 132.401 139.534ZM116.251 157.4C115.954 157.303 115.735 157.114 115.592 156.832C115.449 156.551 115.426 156.262 115.523 155.966C115.62 155.669 115.809 155.45 116.09 155.307C116.372 155.164 116.661 155.141 116.957 155.238C117.254 155.335 117.473 155.524 117.616 155.805C117.759 156.087 117.782 156.376 117.685 156.672C117.621 156.868 117.512 157.032 117.358 157.164C117.209 157.297 117.035 157.386 116.838 157.433C116.647 157.476 116.451 157.466 116.251 157.4ZM120.909 158.923C120.613 158.826 120.393 158.636 120.25 158.355C120.107 158.073 120.084 157.784 120.181 157.488C120.278 157.192 120.467 156.972 120.749 156.829C121.03 156.686 121.319 156.663 121.616 156.76C121.912 156.857 122.132 157.046 122.274 157.328C122.417 157.609 122.44 157.898 122.343 158.195C122.279 158.391 122.17 158.555 122.017 158.686C121.867 158.819 121.693 158.909 121.497 158.955C121.305 158.999 121.109 158.988 120.909 158.923ZM125.567 160.445C125.271 160.348 125.051 160.159 124.908 159.877C124.765 159.596 124.742 159.307 124.839 159.01C124.936 158.714 125.125 158.494 125.407 158.352C125.689 158.209 125.978 158.186 126.274 158.282C126.57 158.379 126.79 158.569 126.933 158.85C127.076 159.132 127.099 159.421 127.002 159.717C126.938 159.913 126.829 160.077 126.675 160.209C126.525 160.341 126.352 160.431 126.155 160.477C125.963 160.521 125.767 160.51 125.567 160.445Z" fill="#838383"/>
<path d="M121.184 80.7204L119.977 84.4141L134.9 89.2913L136.107 85.5976L121.184 80.7204Z" fill="#838383"/>
<path d="M156.957 92.4095L155.75 96.1025L161.898 98.1118L163.105 94.4187L156.957 92.4095Z" fill="#838383"/>
<path d="M139.22 113.806L137.395 119.392L153.257 124.576L155.082 118.99L139.22 113.806Z" fill="#838383"/>
<path d="M134.671 101.03C134.374 100.933 134.155 100.744 134.012 100.462C133.869 100.181 133.846 99.8918 133.943 99.5955C134.04 99.2991 134.229 99.0795 134.511 98.9367C134.792 98.7938 135.081 98.7708 135.377 98.8676C135.674 98.9645 135.893 99.1537 136.036 99.4353C136.179 99.7169 136.202 100.006 136.105 100.302C136.041 100.498 135.932 100.662 135.778 100.794C135.629 100.927 135.455 101.016 135.258 101.063C135.067 101.106 134.871 101.095 134.671 101.03ZM139.329 102.552C139.033 102.456 138.813 102.266 138.67 101.985C138.527 101.703 138.504 101.414 138.601 101.118C138.698 100.822 138.887 100.602 139.169 100.459C139.45 100.316 139.739 100.293 140.036 100.39C140.332 100.487 140.552 100.676 140.695 100.958C140.837 101.239 140.86 101.528 140.764 101.825C140.699 102.021 140.591 102.185 140.437 102.316C140.287 102.449 140.114 102.539 139.917 102.585C139.725 102.629 139.529 102.618 139.329 102.552ZM143.987 104.075C143.691 103.978 143.471 103.789 143.328 103.507C143.186 103.226 143.163 102.937 143.259 102.64C143.356 102.344 143.545 102.124 143.827 101.981C144.109 101.839 144.398 101.816 144.694 101.912C144.99 102.009 145.21 102.198 145.353 102.48C145.496 102.762 145.519 103.051 145.422 103.347C145.358 103.543 145.249 103.707 145.095 103.839C144.945 103.971 144.772 104.061 144.575 104.107C144.383 104.151 144.188 104.14 143.987 104.075ZM127.837 121.941C127.54 121.844 127.321 121.655 127.178 121.374C127.035 121.092 127.012 120.803 127.109 120.507C127.206 120.21 127.395 119.991 127.676 119.848C127.958 119.705 128.247 119.682 128.543 119.779C128.84 119.876 129.059 120.065 129.202 120.346C129.345 120.628 129.368 120.917 129.271 121.213C129.207 121.41 129.098 121.573 128.944 121.705C128.795 121.838 128.621 121.927 128.424 121.974C128.233 122.017 128.037 122.007 127.837 121.941ZM132.495 123.464C132.199 123.367 131.979 123.178 131.836 122.896C131.693 122.614 131.67 122.325 131.767 122.029C131.864 121.733 132.053 121.513 132.335 121.37C132.616 121.227 132.905 121.204 133.202 121.301C133.498 121.398 133.718 121.587 133.86 121.869C134.003 122.15 134.026 122.439 133.93 122.736C133.865 122.932 133.756 123.096 133.603 123.227C133.453 123.36 133.28 123.45 133.083 123.496C132.891 123.54 132.695 123.529 132.495 123.464ZM137.153 124.986C136.857 124.889 136.637 124.7 136.494 124.418C136.352 124.137 136.329 123.848 136.425 123.551C136.522 123.255 136.711 123.035 136.993 122.893C137.275 122.75 137.564 122.727 137.86 122.824C138.156 122.92 138.376 123.11 138.519 123.391C138.662 123.673 138.685 123.962 138.588 124.258C138.524 124.454 138.415 124.618 138.261 124.75C138.111 124.882 137.938 124.972 137.741 125.018C137.549 125.062 137.353 125.051 137.153 124.986ZM121.003 142.852C120.706 142.755 120.487 142.566 120.344 142.285C120.201 142.003 120.178 141.714 120.275 141.418C120.372 141.121 120.561 140.902 120.842 140.759C121.124 140.616 121.413 140.593 121.709 140.69C122.006 140.787 122.225 140.976 122.368 141.258C122.511 141.539 122.534 141.828 122.437 142.124C122.373 142.321 122.264 142.484 122.11 142.616C121.961 142.749 121.787 142.838 121.59 142.885C121.399 142.929 121.203 142.918 121.003 142.852ZM125.661 144.375C125.365 144.278 125.145 144.089 125.002 143.807C124.859 143.525 124.836 143.236 124.933 142.94C125.03 142.644 125.219 142.424 125.501 142.281C125.782 142.138 126.071 142.115 126.368 142.212C126.664 142.309 126.884 142.498 127.026 142.78C127.169 143.062 127.192 143.35 127.095 143.647C127.031 143.843 126.922 144.007 126.769 144.138C126.619 144.271 126.446 144.361 126.249 144.407C126.057 144.451 125.861 144.44 125.661 144.375ZM130.319 145.897C130.023 145.8 129.803 145.611 129.66 145.329C129.517 145.048 129.494 144.759 129.591 144.463C129.688 144.166 129.877 143.947 130.159 143.804C130.441 143.661 130.73 143.638 131.026 143.735C131.322 143.831 131.542 144.021 131.685 144.302C131.828 144.584 131.851 144.873 131.754 145.169C131.69 145.365 131.581 145.529 131.427 145.661C131.277 145.794 131.104 145.883 130.907 145.93C130.715 145.973 130.519 145.963 130.319 145.897ZM114.169 163.763C113.872 163.667 113.653 163.477 113.51 163.196C113.367 162.914 113.344 162.625 113.441 162.329C113.538 162.032 113.727 161.813 114.008 161.67C114.29 161.527 114.579 161.504 114.875 161.601C115.172 161.698 115.391 161.887 115.534 162.169C115.677 162.45 115.7 162.739 115.603 163.036C115.539 163.232 115.43 163.396 115.276 163.527C115.127 163.66 114.953 163.749 114.756 163.796C114.565 163.84 114.369 163.829 114.169 163.763ZM118.827 165.286C118.53 165.189 118.311 165 118.168 164.718C118.025 164.437 118.002 164.148 118.099 163.851C118.196 163.555 118.385 163.335 118.667 163.192C118.948 163.05 119.237 163.027 119.534 163.123C119.83 163.22 120.049 163.409 120.192 163.691C120.335 163.973 120.358 164.262 120.261 164.558C120.197 164.754 120.088 164.918 119.935 165.049C119.785 165.182 119.611 165.272 119.415 165.318C119.223 165.362 119.027 165.351 118.827 165.286ZM123.485 166.808C123.189 166.711 122.969 166.522 122.826 166.241C122.683 165.959 122.66 165.67 122.757 165.374C122.854 165.077 123.043 164.858 123.325 164.715C123.607 164.572 123.896 164.549 124.192 164.646C124.488 164.743 124.708 164.932 124.851 165.213C124.994 165.495 125.017 165.784 124.92 166.08C124.856 166.277 124.747 166.44 124.593 166.572C124.443 166.705 124.27 166.794 124.073 166.841C123.881 166.884 123.685 166.874 123.485 166.808Z" fill="#838383"/>
<path d="M116.938 92.8842L113.617 103.073L114.317 103.301L117.637 93.1122L116.938 92.8842Z" fill="#838383"/>
<path d="M119.267 93.6468L115.941 103.833L116.64 104.061L119.966 93.8749L119.267 93.6468Z" fill="#838383"/>
<path d="M121.596 94.4064L118.266 104.591L118.964 104.819L122.295 94.6349L121.596 94.4064Z" fill="#838383"/>
<path d="M123.927 95.1672L120.586 105.349L121.284 105.578L124.625 95.3963L123.927 95.1672Z" fill="#838383"/>
<path d="M126.256 95.9265L122.914 106.107L123.612 106.336L126.954 96.1555L126.256 95.9265Z" fill="#838383"/>
<path d="M128.576 96.6888L125.242 106.872L125.94 107.1L129.273 96.9172L128.576 96.6888Z" fill="#838383"/>
<path d="M130.908 97.4479L127.562 107.628L128.261 107.857L131.606 97.6774L130.908 97.4479Z" fill="#838383"/>
<path d="M133.236 98.2162L129.906 108.401L130.605 108.63L133.935 98.4445L133.236 98.2162Z" fill="#838383"/>
<path d="M135.552 98.9742L132.23 109.161L132.929 109.389L136.25 99.2018L135.552 98.9742Z" fill="#838383"/>
<path d="M137.892 99.7318L134.566 109.919L135.264 110.147L138.59 99.9595L137.892 99.7318Z" fill="#838383"/>
<path d="M140.214 100.496L136.891 110.684L137.589 110.912L140.913 100.724L140.214 100.496Z" fill="#838383"/>
<path d="M142.543 101.259L139.219 111.445L139.917 111.673L143.242 101.487L142.543 101.259Z" fill="#838383"/>
<path d="M144.869 102.007L141.555 112.197L142.253 112.424L145.568 102.234L144.869 102.007Z" fill="#838383"/>
<path d="M147.193 102.781L143.871 112.968L144.57 113.196L147.892 103.009L147.193 102.781Z" fill="#838383"/>
<path d="M149.524 103.536L146.191 113.719L146.889 113.947L150.221 103.764L149.524 103.536Z" fill="#838383"/>
<path d="M151.863 104.299L148.531 114.484L149.23 114.713L152.562 104.528L151.863 104.299Z" fill="#838383"/>
<path d="M154.189 105.058L150.867 115.246L151.566 115.474L154.887 105.286L154.189 105.058Z" fill="#838383"/>
<path d="M156.509 105.818L153.18 116.003L153.879 116.232L157.209 106.046L156.509 105.818Z" fill="#838383"/>
<path d="M158.841 106.58L155.516 116.767L156.215 116.995L159.541 106.808L158.841 106.58Z" fill="#838383"/>
<path d="M157.601 106.179L154.297 116.372L154.646 116.485L157.95 106.292L157.601 106.179Z" fill="#838383"/>
<path d="M155.292 105.42L151.973 115.608L152.322 115.722L155.641 105.533L155.292 105.42Z" fill="#838383"/>
<path d="M152.965 104.655L149.629 114.838L149.978 114.952L153.314 104.769L152.965 104.655Z" fill="#838383"/>
<path d="M150.632 103.899L147.312 114.087L147.662 114.201L150.981 104.012L150.632 103.899Z" fill="#838383"/>
<path d="M148.313 103.143L144.977 113.326L145.326 113.441L148.662 103.257L148.313 103.143Z" fill="#838383"/>
<path d="M142.999 112.676L142.651 112.563L145.98 102.375L146.328 102.491L142.999 112.676Z" fill="#838383"/>
<path d="M143.662 101.621L140.305 111.798L140.653 111.913L144.01 101.736L143.662 101.621Z" fill="#838383"/>
<path d="M138.344 111.154L137.995 111.04L141.324 100.854L141.673 100.969L138.344 111.154Z" fill="#838383"/>
<path d="M136.017 110.393L135.667 110.279L138.996 100.094L139.346 100.209L136.017 110.393Z" fill="#838383"/>
<path d="M136.663 99.3382L133.336 109.523L133.686 109.638L137.014 99.4526L136.663 99.3382Z" fill="#838383"/>
<path d="M131.359 108.873L131.01 108.758L134.339 98.5729L134.687 98.6858L131.359 108.873Z" fill="#838383"/>
<path d="M132.022 97.8106L128.684 107.994L129.033 108.109L132.371 97.925L132.022 97.8106Z" fill="#838383"/>
<path d="M129.675 97.0472L126.348 107.232L126.697 107.347L130.025 97.1614L129.675 97.0472Z" fill="#838383"/>
<path d="M124.374 106.59L124.026 106.475L127.355 96.2897L127.704 96.4031L124.374 106.59Z" fill="#838383"/>
<path d="M125.024 95.5272L121.715 105.72L122.064 105.833L125.373 95.6407L125.024 95.5272Z" fill="#838383"/>
<path d="M119.719 105.066L119.37 104.954L122.699 94.7675L123.048 94.8825L119.719 105.066Z" fill="#838383"/>
<path d="M120.369 94.0072L117.039 104.192L117.388 104.307L120.718 94.1213L120.369 94.0072Z" fill="#838383"/>
<path d="M115.062 103.546L114.713 103.432L118.042 93.2458L118.392 93.3614L115.062 103.546Z" fill="#838383"/>
<path d="M115.672 103.745L115.499 103.687L118.827 93.5025L119.001 93.5595L115.672 103.745Z" fill="#838383"/>
<path d="M121.155 94.2629L117.836 104.451L118.011 104.508L121.33 94.3198L121.155 94.2629Z" fill="#838383"/>
<path d="M123.485 95.0167L120.164 105.206L120.339 105.263L123.659 95.0736L123.485 95.0167Z" fill="#838383"/>
<path d="M122.657 106.027L122.483 105.97L125.812 95.7849L125.987 95.8422L122.657 106.027Z" fill="#838383"/>
<path d="M124.985 106.789L124.811 106.731L128.14 96.5466L128.315 96.6039L124.985 106.789Z" fill="#838383"/>
<path d="M127.313 107.551L127.139 107.493L130.467 97.3082L130.643 97.3646L127.313 107.551Z" fill="#838383"/>
<path d="M132.835 98.0813L129.445 108.247L129.62 108.305L133.01 98.1395L132.835 98.0813Z" fill="#838383"/>
<path d="M131.97 109.071L131.796 109.014L135.124 98.8294L135.3 98.8859L131.97 109.071Z" fill="#838383"/>
<path d="M137.468 99.589L134.113 109.767L134.288 109.824L137.643 99.6466L137.468 99.589Z" fill="#838383"/>
<path d="M136.627 110.593L136.452 110.537L139.781 100.35L139.955 100.408L136.627 110.593Z" fill="#838383"/>
<path d="M142.072 101.1L138.805 111.305L138.98 111.361L142.247 101.156L142.072 101.1Z" fill="#838383"/>
<path d="M141.283 112.115L141.108 112.058L144.437 101.873L144.613 101.93L141.283 112.115Z" fill="#838383"/>
<path d="M143.61 112.876L143.436 112.82L146.764 102.633L146.939 102.691L143.61 112.876Z" fill="#838383"/>
<path d="M145.941 113.637L145.764 113.58L149.094 103.394L149.269 103.452L145.941 113.637Z" fill="#838383"/>
<path d="M151.421 104.158L148.102 114.347L148.276 114.404L151.596 104.214L151.421 104.158Z" fill="#838383"/>
<path d="M150.595 115.159L150.42 115.102L153.75 104.917L153.925 104.973L150.595 115.159Z" fill="#838383"/>
<path d="M152.923 115.92L152.748 115.863L156.078 105.676L156.252 105.734L152.923 115.92Z" fill="#838383"/>
<path d="M158.406 106.438L155.086 116.626L155.262 116.683L158.582 106.495L158.406 106.438Z" fill="#838383"/>
<path d="M156 171L152 174.7L148 174.7C145.563 170.672 142.706 177.602 138.128 176.5C133.816 175.461 131.788 181.324 125.5 176.5C113.265 167.112 98.8154 181.348 98.8154 181.348L132.746 174.7C132.746 174.7 126.064 156.286 138.128 127.834C139.42 124.788 139.623 121.391 138.724 118.207L133.612 100.111C133.612 100.111 119.695 89.4816 123.698 72.2357C123.698 72.2357 128.65 61.634 131.97 64.5355C131.97 64.5355 161.535 109.062 164.76 115.907C167.984 122.751 171.315 126.804 173.164 149.896C173.654 156.009 174.372 161.048 175.164 165.152C176.684 173.033 156.27 164.517 161 171L156 171Z" fill="#FFC0BB"/>
<path d="M193.002 95.0006C190.333 90.8792 186.305 91.604 184.348 93.0562C180.819 95.676 178.47 106.116 181.332 113.42C184.193 120.723 191.78 120.379 194.213 112.046C195.253 108.487 195.671 99.122 193.002 95.0006Z" fill="#14AD52"/>
<path d="M41.8009 146C41.8009 146 40.6054 158.158 31.3008 159C40.6051 159.841 41.8009 172 41.8009 172C41.8009 172 42.9965 159.841 52.3008 159C42.9965 158.159 41.8009 146 41.8009 146Z" fill="white"/>
<path d="M166.801 143C166.801 143 165.605 155.158 156.301 156C165.605 156.841 166.801 169 166.801 169C166.801 169 167.996 156.841 177.301 156C167.996 155.159 166.801 143 166.801 143Z" fill="white"/>
<path d="M26.8009 140C26.8009 140 26.0608 147.014 20.3008 147.5C26.0606 147.985 26.8009 155 26.8009 155C26.8009 155 27.541 147.985 33.3008 147.5C27.541 147.015 26.8009 140 26.8009 140Z" fill="white"/>
<path d="M177.801 133C177.801 133 177.061 140.014 171.301 140.5C177.061 140.985 177.801 148 177.801 148C177.801 148 178.541 140.985 184.301 140.5C178.541 140.015 177.801 133 177.801 133Z" fill="white"/>
<path d="M38.8009 20C38.8009 20 38.0608 27.0144 32.3008 27.4999C38.0606 27.9852 38.8009 35 38.8009 35C38.8009 35 39.541 27.9854 45.3008 27.4999C39.541 27.0146 38.8009 20 38.8009 20Z" fill="white"/>
<path d="M47.8008 28C47.8008 28 47.5162 30.8058 45.3008 31C47.5161 31.1941 47.8008 34 47.8008 34C47.8008 34 48.0855 31.1942 50.3008 31C48.0855 30.8058 47.8008 28 47.8008 28Z" fill="white"/>
<path d="M4.93305 83.9934C4.96567 83.1171 5.59757 82.3473 6.49556 82.1759C6.66051 82.1444 6.82436 82.1351 6.98433 82.1458C7.24672 81.1131 8.08337 80.2728 9.19882 80.0599C9.48746 80.0049 9.77393 79.9956 10.0511 80.0273C10.4618 78.9182 11.4259 78.0451 12.6722 77.8073C14.1552 77.5243 15.5977 78.2244 16.3278 79.4505C16.6306 79.197 17 79.0147 17.4154 78.9354C18.7151 78.6874 19.97 79.54 20.2181 80.8399C20.2328 80.9169 20.2434 80.9938 20.2506 81.0704L4.93305 83.9934Z" fill="white"/>
<path d="M41.6726 48.317C41.6726 48.317 28.5827 42.7635 26.909 48.3875C25.2352 54.0114 46.4222 68.7389 46.4222 68.7389L41.6726 48.317Z" fill="#EAA0A0"/>
<path d="M48.1336 82.1658C48.1336 82.1658 35.0436 76.6121 33.37 82.2361C31.6961 87.86 52.8832 102.588 52.8832 102.588L48.1336 82.1658Z" fill="#EAA0A0"/>
<path d="M52.532 105.228C52.532 105.228 39.4421 99.6746 37.7684 105.299C36.0946 110.922 57.2816 125.65 57.2816 125.65L52.532 105.228Z" fill="#EAA0A0"/>
<path d="M48.0249 38.0814L111.747 25.921C116.492 25.0155 121.074 28.1277 121.98 32.8739L142.215 138.913L146.832 163.105C147.746 167.893 144.579 172.44 139.879 173.337L76.1568 185.498C71.4165 186.402 66.8311 183.296 65.9245 178.545L45.6887 72.5058L41.072 48.3137C40.1583 43.5254 43.3246 38.9783 48.0249 38.0814Z" fill="#063E70"/>
<path opacity="0.2" d="M135.43 134.889C135.43 134.889 152.34 160.904 152.24 166.453C152.14 172.001 146.507 180.469 128.893 181.366C111.279 182.263 98.8107 181.347 98.8107 181.347C98.8107 181.347 90.8271 143.406 91.1758 141.339C91.5245 139.271 119.763 119.677 120.977 119.445C122.191 119.214 135.43 134.889 135.43 134.889Z" fill="#FFC0BB"/>
<path d="M45.8293 50.6372L118.406 36.7871L142.069 160.781L69.4915 174.632L45.8293 50.6372Z" fill="#4FC780"/>
<path d="M69.4915 174.632L118.406 36.7871L142.069 160.781L69.4915 174.632Z" fill="#3BB86E"/>
<path d="M125.803 122.17L73.9496 132.788C73.294 132.922 72.6603 132.498 72.5347 131.84L70.3624 120.456C70.2368 119.798 70.6676 119.16 71.3241 119.03L123.244 108.757C123.867 108.634 124.471 109.053 124.594 109.694L126.709 120.779C126.831 121.42 126.426 122.042 125.803 122.17Z" fill="#F4F7FA"/>
<path d="M129.685 143.161L78.176 154.267C77.4533 154.423 76.7547 153.96 76.616 153.234L74.4912 142.099C74.3525 141.372 74.8271 140.661 75.5507 140.51L127.125 129.748C127.813 129.604 128.479 130.062 128.614 130.769L130.683 141.612C130.818 142.32 130.372 143.013 129.685 143.161Z" fill="#F4F7FA"/>
<path d="M111.501 75.745C113.682 87.1708 106.361 98.1692 95.0366 100.332C83.5853 102.519 72.404 94.8592 70.1791 83.2004C67.9542 71.5416 75.5649 60.491 87.0609 58.5381C98.4294 56.6068 109.321 64.3192 111.501 75.745Z" fill="white"/>
<path d="M98.2847 71.6361C99.1831 76.344 96.1458 80.8425 91.4852 81.6867C86.8077 82.5339 82.27 79.3812 81.3657 74.6422C80.4613 69.9031 83.5374 65.3976 88.221 64.5816C92.8875 63.7686 97.3863 66.9282 98.2847 71.6361Z" fill="url(#paint0_linear_275_5227)"/>
<path d="M95.0348 100.333C100.041 99.3767 104.262 96.6955 107.225 93.0227C104.834 87.0282 98.5373 83.324 92.0167 84.5172C85.4543 85.7181 80.8602 91.4724 80.8277 97.9998C85.0239 100.352 90.0043 101.294 95.0348 100.333Z" fill="url(#paint1_linear_275_5227)"/>
<path d="M106.373 120.86L78.0591 126.584C77.0958 126.779 76.1559 126.146 75.971 125.177C75.7862 124.209 76.424 123.258 77.3875 123.065L105.71 117.389C106.647 117.202 107.561 117.828 107.743 118.782C107.925 119.736 107.309 120.671 106.373 120.86Z" fill="url(#paint2_linear_275_5227)"/>
<path d="M84.2977 145.778C84.5338 147.015 83.73 148.231 82.5009 148.493C81.2703 148.755 80.0798 147.963 79.8431 146.723C79.6065 145.483 80.4137 144.267 81.6448 144.007C82.8743 143.747 84.0615 144.54 84.2977 145.778Z" fill="url(#paint3_linear_275_5227)"/>
<path d="M92.6308 144.01C92.866 145.243 92.0694 146.453 90.8503 146.713C89.6297 146.973 88.4481 146.183 88.2124 144.948C87.9767 143.713 88.7766 142.502 89.9977 142.245C91.2173 141.987 92.3956 142.778 92.6308 144.01Z" fill="url(#paint4_linear_275_5227)"/>
<path d="M100.898 142.258C101.132 143.485 100.343 144.689 99.1336 144.947C97.9229 145.205 96.7501 144.418 96.5153 143.187C96.2806 141.957 97.0732 140.753 98.2844 140.497C99.4942 140.242 100.664 141.03 100.898 142.258Z" fill="url(#paint5_linear_275_5227)"/>
<path d="M109.095 140.519C109.329 141.741 108.546 142.939 107.347 143.195C106.146 143.451 104.982 142.666 104.748 141.441C104.514 140.216 105.3 139.017 106.501 138.763C107.701 138.51 108.862 139.296 109.095 140.519Z" fill="url(#paint6_linear_275_5227)"/>
<path d="M117.231 138.793C117.463 140.011 116.688 141.203 115.498 141.457C114.306 141.711 113.151 140.928 112.918 139.708C112.685 138.488 113.464 137.294 114.655 137.043C115.846 136.792 116.998 137.575 117.231 138.793Z" fill="url(#paint7_linear_275_5227)"/>
<path d="M95.1286 100.84C89.4488 101.924 83.6693 100.697 78.8538 97.3841C74.0325 94.0673 70.7711 89.0646 69.6705 83.2974C68.5606 77.4814 69.7851 71.6348 73.1185 66.8347C76.3941 62.1177 81.3125 58.9894 86.9729 58.0292C92.6011 57.0731 98.301 58.3806 103.023 61.7108C107.736 65.0347 110.926 69.9845 112.007 75.6484C113.088 81.3142 111.936 87.05 108.761 91.7993C105.58 96.5577 100.74 99.7683 95.1319 100.839C95.1309 100.84 95.1297 100.84 95.1286 100.84ZM86.7314 59.1221C81.5229 60.1161 77.0028 63.0519 73.9669 67.4238C70.793 71.994 69.6275 77.5627 70.685 83.1038C71.7343 88.6023 74.8433 93.3716 79.4393 96.5333C84.0253 99.6881 89.5288 100.857 94.9351 99.8258C94.9364 99.8255 94.937 99.8254 94.9383 99.8252C105.914 97.7287 113.116 86.9699 110.993 75.842C108.868 64.7085 98.1705 57.1745 87.1459 59.0474C87.0076 59.0708 86.8688 59.0959 86.7314 59.1221Z" fill="white"/>
<path d="M66.5639 42.6425L96.0665 37.0124C96.4956 36.9305 96.777 36.5164 96.6951 36.0873C96.6132 35.6583 96.1991 35.3769 95.77 35.4588L66.2674 41.0889C65.8383 41.1708 65.5569 41.5849 65.6387 42.0139C65.7206 42.443 66.1348 42.7244 66.5639 42.6425Z" fill="white"/>
<path d="M138.33 110.719C138.33 110.719 138.202 112.43 137.365 113.42L133.606 100.111C133.606 100.111 123.368 92.2919 122.98 79.185C122.847 74.698 124.248 70.2781 127.004 66.7349C128.577 64.7126 130.442 63.2057 131.964 64.5356C131.964 64.5356 145.867 85.4749 155.645 100.842L138.33 110.719Z" fill="#FFC0BB"/>
<path d="M68.0949 167.297L140.672 153.447L142.072 160.782L69.4945 174.632L68.0949 167.297Z" fill="#FFCB83"/>
<path d="M45.8293 50.6372L118.406 36.7871L119.662 43.3674L47.085 57.2175L45.8293 50.6372Z" fill="#FFCB83"/>
<path d="M132.798 78.2331C129.925 77.5221 127.234 70.913 126.151 67.918C127.864 65.3811 130.156 62.9547 131.965 64.5353C131.965 64.5353 135.027 69.1461 139.287 75.6282C137.504 77.1189 134.946 78.7648 132.798 78.2331Z" fill="#EAA0A0"/>
</g>
<defs>
<linearGradient id="paint0_linear_275_5227" x1="70.8863" y1="47.8836" x2="158.666" y2="164.944" gradientUnits="userSpaceOnUse">
<stop stop-color="#AA80F9"/>
<stop offset="0.9964" stop-color="#6165D7"/>
</linearGradient>
<linearGradient id="paint1_linear_275_5227" x1="63.0299" y1="53.7736" x2="150.81" y2="170.834" gradientUnits="userSpaceOnUse">
<stop stop-color="#AA80F9"/>
<stop offset="0.9964" stop-color="#6165D7"/>
</linearGradient>
<linearGradient id="paint2_linear_275_5227" x1="48.7457" y1="64.4879" x2="136.526" y2="181.548" gradientUnits="userSpaceOnUse">
<stop stop-color="#AA80F9"/>
<stop offset="0.9964" stop-color="#6165D7"/>
</linearGradient>
<linearGradient id="paint3_linear_275_5227" x1="30.8299" y1="77.9178" x2="118.61" y2="194.978" gradientUnits="userSpaceOnUse">
<stop stop-color="#AA80F9"/>
<stop offset="0.9964" stop-color="#6165D7"/>
</linearGradient>
<linearGradient id="paint4_linear_275_5227" x1="37.0258" y1="73.2722" x2="124.806" y2="190.333" gradientUnits="userSpaceOnUse">
<stop stop-color="#AA80F9"/>
<stop offset="0.9964" stop-color="#6165D7"/>
</linearGradient>
<linearGradient id="paint5_linear_275_5227" x1="43.1728" y1="68.6646" x2="130.953" y2="185.725" gradientUnits="userSpaceOnUse">
<stop stop-color="#AA80F9"/>
<stop offset="0.9964" stop-color="#6165D7"/>
</linearGradient>
<linearGradient id="paint6_linear_275_5227" x1="49.2673" y1="64.0936" x2="137.047" y2="181.154" gradientUnits="userSpaceOnUse">
<stop stop-color="#AA80F9"/>
<stop offset="0.9964" stop-color="#6165D7"/>
</linearGradient>
<linearGradient id="paint7_linear_275_5227" x1="55.316" y1="59.5588" x2="143.096" y2="176.619" gradientUnits="userSpaceOnUse">
<stop stop-color="#AA80F9"/>
<stop offset="0.9964" stop-color="#6165D7"/>
</linearGradient>
<clipPath id="clip0_275_5227">
<rect width="200" height="200" fill="white"/>
</clipPath>
</defs>
</svg>
