<svg width="200" height="200" viewBox="0 0 200 200" fill="none" xmlns="http://www.w3.org/2000/svg">
<g clip-path="url(#clip0_275_5633)">
<path d="M94.5134 194C26.5238 194 12.7417 180.032 4.003 144.5C-4.73571 108.968 23.7353 101.517 30.3484 81.615C36.9615 61.713 6.96645 49.9759 27.0419 22.8971C47.1173 -4.18175 76.7235 -4.65411 89.1993 8.09976C101.675 20.8535 116.057 0.305773 139.216 11.8787C162.374 23.4516 168.042 46.8368 160.721 65.1016C153.399 83.3662 195.003 86 199.003 130.5C203.003 175 162.503 194 94.5134 194Z" fill="#14AD52"/>
<path d="M7.1989 68.4681C1.13129 63.7033 8.03502 54.4156 14.3002 58.9176C14.8669 59.3248 15.4403 59.83 16.016 60.4491C22.1561 67.0536 24.4158 78.0455 18.9387 80.5753C13.4615 83.1051 11.9838 76.26 10.9104 72.3135C10.4096 70.4721 8.76371 69.6969 7.1989 68.4681Z" fill="#14AD52"/>
<path d="M177.359 9.35459C174.051 8.20007 170.43 9.96138 169.185 13.2359C168.217 15.7818 167.109 19.3337 167.009 22.4571C166.827 28.0922 169.499 31.5 175.499 33.5C181.499 35.5 189.181 28.6089 183.476 19.494C181.039 15.6006 184.394 11.8105 177.359 9.35459Z" fill="#14AD52"/>
<path d="M95.5002 6C95.5002 6 94.3046 18.1583 85 18.9998C94.3043 19.841 95.5002 32 95.5002 32C95.5002 32 96.6957 19.8414 106 18.9998C96.6957 18.1586 95.5002 6 95.5002 6Z" fill="white"/>
<path d="M140.5 159C140.5 159 139.305 171.158 130 172C139.304 172.841 140.5 185 140.5 185C140.5 185 141.696 172.841 151 172C141.696 171.159 140.5 159 140.5 159Z" fill="white"/>
<path d="M80.5001 0C80.5001 0 79.76 7.0144 74 7.4999C79.7598 7.98521 80.5001 15 80.5001 15C80.5001 15 81.2402 7.98541 87 7.4999C81.2402 7.0146 80.5001 0 80.5001 0Z" fill="white"/>
<path d="M157.5 176C157.5 176 156.76 183.014 151 183.5C156.76 183.985 157.5 191 157.5 191C157.5 191 158.24 183.985 164 183.5C158.24 183.015 157.5 176 157.5 176Z" fill="white"/>
<path d="M60.0597 24.3519C57.9892 25.4771 52.8718 40.0513 52.8718 40.0513L52.8169 40.9663C52.8169 40.9663 68.2122 34.198 68.5764 33.3353C69.5598 31.0062 61.761 23.4276 60.0597 24.3519ZM53.0623 40.268C54.8081 35.6366 59.7386 28.1274 60.8107 26.525C62.4993 27.43 65.6334 30.6792 66.4328 32.3405C64.7182 33.2917 57.5401 38.2482 53.0623 40.268Z" fill="#FE7893"/>
<path d="M39.3238 33.0596C34.098 31.5874 32.9135 31.9821 31.8738 33.0954C30.834 34.2084 28.2659 42.3575 31.0032 43.7913C33.7402 45.2252 50.7359 41.537 50.7359 41.537L50.7922 40.4095C50.7922 40.4095 44.5491 34.5314 39.3238 33.0596ZM33.645 42.1558C32.3804 41.4965 33.5254 36.7403 34.3526 35.5454C34.5823 35.3009 47.9188 38.8952 50.227 40.8257C43.8101 42.0977 34.7927 42.6724 33.645 42.1558Z" fill="#FE7893"/>
<path d="M51.8482 44.6305L52.7784 44.3392C53.7004 44.0505 54.2135 43.0697 53.9249 42.1479L53.0681 39.4116C52.7794 38.4896 51.7985 37.9765 50.8765 38.2652L49.9463 38.5565C49.0247 38.8451 48.5112 39.8261 48.7999 40.7481L49.6567 43.4844C49.9454 44.4061 50.9264 44.9191 51.8482 44.6305Z" fill="#FE7893"/>
<path d="M86.1679 30.5795L10.4792 54.0308C8.46522 54.6549 7.48244 56.9292 8.40745 58.825L11.9937 66.175L15.7814 64.9804L30.2246 103.096C30.9975 105.136 33.2253 106.22 35.306 105.569L95.6611 86.6701L84.8089 43.2088L88.377 42.0836L86.1679 30.5795Z" fill="#3F1963"/>
<path d="M96.9499 86.2655L50.6225 100.772L31.5508 48.5635L86.5926 31.3286L99.7217 81.3525C100.271 83.444 99.0499 85.6079 96.9499 86.2655Z" fill="#562391"/>
<path d="M92.1006 40.9452L32.3974 59.8136L27.4336 48.7441L86.0386 30.6398C87.9634 30.0451 89.9846 31.2253 90.413 33.1936L92.1006 40.9452Z" fill="#562391"/>
<path d="M32.3973 59.8137L89.3392 41.8099L35.0987 62.1023L32.3973 59.8137Z" fill="#3F1963"/>
<path d="M52.8357 40.8892L51.25 41.3857L54.8054 52.7404L56.3911 52.2439L52.8357 40.8892Z" fill="#FE7893"/>
<path d="M61.3687 50.6265L59.3867 51.2471L72.7517 93.9301L74.7337 93.3095L61.3687 50.6265Z" fill="#FE7893"/>
<path d="M121.511 72.2455C121.194 70.0016 119.118 68.4396 116.874 68.7567L3.53006 84.7675C1.28614 85.0845 -0.275847 87.1606 0.0407678 89.4043L10.4332 162.975C10.75 165.219 12.8263 166.781 15.0702 166.464L128.414 150.453C130.658 150.136 132.221 148.06 131.903 145.817L121.511 72.2455Z" fill="#959BC1"/>
<path d="M125.359 68.8101C125.06 66.5381 122.977 64.9383 120.704 65.2371L5.93757 80.3243C3.66538 80.6231 2.06557 82.707 2.36391 84.979L12.1568 159.474C12.4556 161.746 14.5395 163.345 16.8119 163.047L131.579 147.959C133.851 147.661 135.451 145.577 135.152 143.305L125.359 68.8101Z" fill="#252B30"/>
<g opacity="0.3">
<path d="M124.957 68.8636C124.713 67.0096 123.121 65.6113 121.254 65.6113C121.091 65.6113 120.925 65.6222 120.761 65.6437L5.99478 80.7308C3.9507 80.9996 2.50593 82.8812 2.77427 84.9253L12.5674 159.42C12.8114 161.274 14.4029 162.672 16.27 162.672C16.4333 162.672 16.5992 162.661 16.7625 162.64L131.529 147.553C132.52 147.422 133.4 146.914 134.008 146.122C134.616 145.33 134.879 144.348 134.749 143.359L124.957 68.8636ZM133.195 145.498C132.753 146.073 132.115 146.441 131.396 146.536L16.629 161.623C16.5101 161.639 16.3894 161.647 16.27 161.647C14.9159 161.647 13.7612 160.632 13.5842 159.286L3.79109 84.7918C3.59625 83.3083 4.64482 81.9427 6.1283 81.7476L120.895 66.6605C121.014 66.6449 121.135 66.6368 121.254 66.6368C122.608 66.6368 123.762 67.6515 123.94 68.9971L133.732 143.492C133.827 144.211 133.636 144.923 133.195 145.498Z" fill="#231F20"/>
</g>
<path d="M125.971 68.7298C125.66 66.3673 123.632 64.5859 121.252 64.5859C121.044 64.5859 120.833 64.5999 120.626 64.627L5.85914 79.7141C3.25446 80.0564 1.4137 82.454 1.75576 85.0589L11.5489 159.554C11.8596 161.916 13.8882 163.698 16.2681 163.698C16.476 163.698 16.6867 163.684 16.8941 163.657L131.661 148.569C132.923 148.403 134.045 147.756 134.82 146.747C135.595 145.737 135.93 144.486 135.764 143.225L125.971 68.7298ZM133.843 145.997C133.269 146.746 132.436 147.226 131.5 147.349L16.7336 162.437C16.579 162.457 16.4225 162.467 16.2679 162.467C14.5034 162.467 12.9991 161.146 12.7686 159.393L2.97568 84.8989C2.72191 82.9668 4.08731 81.1882 6.0194 80.9344L120.786 65.8474C120.941 65.8272 121.097 65.8167 121.252 65.8167C123.016 65.8167 124.521 67.1382 124.751 68.8905L134.544 143.385C134.667 144.321 134.418 145.249 133.843 145.997Z" fill="#BFC9D8"/>
<path d="M63.8204 76.5908C63.2696 76.663 62.8814 77.1685 62.9541 77.7196C63.0262 78.2706 63.532 78.6586 64.0829 78.5864C64.6343 78.5137 65.0218 78.0084 64.9494 77.4573C64.8768 76.9063 64.3716 76.5181 63.8204 76.5908Z" fill="#3F4751"/>
<path d="M12.8203 88.3103L21.2389 152.348L123.372 138.921L114.953 74.8838L12.8203 88.3103Z" fill="url(#paint0_radial_275_5633)"/>
<g opacity="0.2">
<path d="M25.1016 161.283L38.8682 159.291L57.0241 73.9277L43.2573 75.9195L25.1016 161.283Z" fill="white"/>
</g>
<path d="M76.9018 56.0741C77.2204 53.8194 79.3065 52.2498 81.5617 52.5684L195.453 68.6565C197.708 68.9751 199.277 71.0612 198.959 73.3157L188.516 147.242C188.198 149.496 186.112 151.066 183.857 150.748L69.9656 134.659C67.7108 134.341 66.1409 132.255 66.4597 130L76.9018 56.0741Z" fill="#959BC1"/>
<path d="M73.0348 52.6205C73.335 50.3375 75.429 48.73 77.7123 49.0302L193.033 64.1903C195.316 64.4906 196.924 66.5845 196.624 68.8675L186.784 143.722C186.484 146.005 184.39 147.612 182.106 147.312L66.7853 132.152C64.5022 131.852 62.8946 129.758 63.1946 127.475L73.0348 52.6205Z" fill="#252B30"/>
<g opacity="0.3">
<path d="M73.4454 52.6732C73.6905 50.8103 75.2898 49.4053 77.1656 49.4053C77.3299 49.4053 77.4965 49.4162 77.6608 49.4378L192.982 64.5977C195.036 64.8678 196.487 66.7586 196.218 68.8125L186.377 143.667C186.132 145.53 184.533 146.935 182.657 146.935C182.493 146.935 182.326 146.924 182.162 146.903L66.8408 131.742C65.8457 131.611 64.961 131.101 64.3501 130.305C63.7389 129.509 63.4745 128.523 63.6052 127.528L73.4454 52.6732ZM65.1673 129.678C65.6109 130.255 66.2528 130.626 66.975 130.721L182.296 145.881C182.416 145.897 182.537 145.905 182.657 145.905C184.018 145.905 185.178 144.885 185.356 143.533L195.196 68.6783C195.392 67.1877 194.338 65.8155 192.848 65.6195L77.5268 50.4596C77.4066 50.4438 77.2852 50.4357 77.1659 50.4357C75.8052 50.4357 74.6452 51.4553 74.4673 52.8074L64.6271 127.662C64.5319 128.384 64.7237 129.1 65.1673 129.678Z" fill="#231F20"/>
</g>
<path d="M72.421 52.5398C72.7333 50.166 74.7717 48.376 77.1628 48.376C77.3719 48.376 77.5834 48.39 77.7921 48.4173L193.113 63.5772C195.73 63.9211 197.58 66.3304 197.236 68.9478L187.396 143.802C187.084 146.176 185.045 147.966 182.654 147.966C182.445 147.966 182.233 147.953 182.025 147.925L66.7036 132.765C65.4356 132.598 64.3083 131.948 63.5296 130.934C62.7508 129.919 62.4137 128.662 62.5804 127.395L72.421 52.5398ZM64.5107 130.181C65.0882 130.933 65.9244 131.415 66.8649 131.539L182.186 146.699C182.341 146.72 182.499 146.73 182.654 146.73C184.427 146.73 185.939 145.402 186.17 143.641L196.01 68.787C196.265 66.8456 194.893 65.0584 192.952 64.8034L77.6311 49.6435C77.4757 49.6232 77.3182 49.6127 77.1628 49.6127C75.3901 49.6127 73.8784 50.9406 73.6468 52.7013L63.8064 127.556C63.683 128.496 63.933 129.428 64.5107 130.181Z" fill="#BFC9D8"/>
<path d="M134.871 60.4385C135.424 60.511 135.814 61.019 135.741 61.5727C135.669 62.1264 135.16 62.5162 134.607 62.4437C134.053 62.3707 133.663 61.8629 133.736 61.3092C133.809 60.7555 134.317 60.3655 134.871 60.4385Z" fill="#3F4751"/>
<path d="M186.121 72.215L177.662 136.562L75.0359 123.07L83.4947 58.7236L186.121 72.215Z" fill="url(#paint1_radial_275_5633)"/>
<g opacity="0.2">
<path d="M79.795 134.034L111.439 137.565L149.013 58.3282L117.369 54.7968L79.795 134.034Z" fill="white"/>
</g>
</g>
<defs>
<radialGradient id="paint0_radial_275_5633" cx="0" cy="0" r="1" gradientUnits="userSpaceOnUse" gradientTransform="translate(68.096 113.616) scale(68.4067 68.4067)">
<stop stop-color="#554A85"/>
<stop offset="1" stop-color="#2F3A5C"/>
</radialGradient>
<radialGradient id="paint1_radial_275_5633" cx="0" cy="0" r="1" gradientUnits="userSpaceOnUse" gradientTransform="translate(130.578 97.6427) rotate(180) scale(68.7371)">
<stop stop-color="#554A85"/>
<stop offset="1" stop-color="#2F3A5C"/>
</radialGradient>
<clipPath id="clip0_275_5633">
<rect width="200" height="200" fill="white"/>
</clipPath>
</defs>
</svg>
