<svg width="200" height="200" viewBox="0 0 200 200" fill="none" xmlns="http://www.w3.org/2000/svg">
<mask id="mask0_275_5165" style="mask-type:alpha" maskUnits="userSpaceOnUse" x="2" y="0" width="197" height="200">
<path d="M95.9991 199.5C28.0095 199.5 12.7378 188.032 3.99909 152.5C-4.73961 116.968 23.7314 101.517 30.3445 81.615C36.9576 61.713 6.96256 49.9759 27.038 22.8971C47.1134 -4.18175 76.7196 -4.65411 89.1954 8.09976C101.671 20.8535 116.053 0.305773 139.212 11.8787C162.37 23.4516 168.038 46.8368 160.717 65.1016C153.395 83.3662 194.499 94 198.499 138.5C202.499 183 163.989 199.5 95.9991 199.5Z" fill="#14AD52"/>
</mask>
<g mask="url(#mask0_275_5165)">
<path d="M94.5095 203.5C26.5199 203.5 12.7378 188.032 3.99909 152.5C-4.73961 116.968 23.7314 101.517 30.3445 81.615C36.9576 61.713 6.96256 49.9759 27.038 22.8971C47.1134 -4.18175 76.7196 -4.65411 89.1954 8.09976C101.671 20.8535 116.053 0.305773 139.212 11.8787C162.37 23.4516 168.038 46.8368 160.717 65.1016C153.395 83.3662 194.499 94 198.499 138.5C202.499 183 162.499 203.5 94.5095 203.5Z" fill="#14AD52"/>
<path d="M20.8789 200.001H64.4239L68.0362 190.276C69.3157 186.831 71.9341 184.061 75.2823 182.546C78.4363 181.119 82.6803 178.529 86.7949 173.911C94.8018 164.923 99.0504 155.282 99.0504 155.282L72.0639 155.15C72.0639 155.15 74.4926 140.055 61.0801 120.006C59.6445 117.86 58.9915 115.285 59.2152 112.713L60.4867 98.0907C60.4867 98.0907 69.6011 87.905 64.009 75.2684C64.009 75.2684 58.6617 67.8647 56.5403 70.5751C56.5403 70.5751 40.3878 109.039 38.9172 114.758C37.4465 120.477 35.4856 124.072 37.4465 142.047C37.9657 146.805 38.152 150.773 38.1456 154.036C38.1331 160.3 36.734 166.483 34.0554 172.146L20.8789 200.001Z" fill="#FFC0BB"/>
<path opacity="0.2" d="M61.4929 175.05C57.4509 170.562 51.8362 171.271 45.9317 169.224C40.0272 167.177 38.1333 152.419 38.1333 152.419L38.1328 152.417C38.1421 152.974 38.1466 153.515 38.1457 154.036C38.1332 160.3 36.7341 166.482 34.0555 172.145L20.8789 200H64.4239L68.0362 190.275C69.3157 186.831 71.9342 184.061 75.2823 182.546C77.9665 181.331 81.4403 179.273 84.9519 175.841C72.9585 180.882 65.5347 179.537 61.4929 175.05Z" fill="#FFC0BB"/>
<path d="M156.782 66.9074C156.629 66.2403 156.031 65.7426 155.318 65.7426C155.187 65.7426 155.06 65.7594 154.939 65.791C154.587 65.0376 153.822 64.5158 152.936 64.5158C152.706 64.5158 152.485 64.5506 152.278 64.6155C151.8 63.8253 150.933 63.2969 149.943 63.2969C148.765 63.2969 147.761 64.0447 147.381 65.0916C147.112 64.9415 146.802 64.8558 146.472 64.8558C145.439 64.8558 144.602 65.6931 144.602 66.726C144.602 66.7872 144.605 66.8477 144.61 66.9075L156.782 66.9074Z" fill="white"/>
<path d="M135.234 28.3872C134.833 26.6454 133.275 25.3461 131.412 25.3461C131.069 25.3461 130.738 25.3901 130.421 25.4723C129.502 23.5059 127.506 22.1433 125.192 22.1433C124.594 22.1433 124.017 22.2344 123.474 22.4034C122.228 20.3404 119.965 18.9609 117.379 18.9609C114.303 18.9609 111.682 20.9134 110.69 23.6468C109.987 23.2549 109.178 23.0308 108.316 23.0308C105.62 23.0308 103.434 25.2168 103.434 27.9133C103.434 28.0732 103.442 28.2311 103.457 28.3871L135.234 28.3872Z" fill="white"/>
<path d="M53.002 52.7956C52.667 51.3377 51.3625 50.2502 49.803 50.2502C49.5168 50.2502 49.2391 50.2871 48.9744 50.3559C48.2049 48.71 46.5346 47.5696 44.5977 47.5696C44.0969 47.5696 43.6139 47.6458 43.1597 47.7872C42.117 46.0605 40.2226 44.906 38.0585 44.906C35.4837 44.906 33.2907 46.5402 32.4597 48.828C31.8714 48.5 31.1943 48.3124 30.4732 48.3124C28.2162 48.3124 26.3867 50.1421 26.3867 52.399C26.3867 52.5328 26.3936 52.665 26.4062 52.7956H53.002Z" fill="white"/>
<path d="M123.396 44.9283C123.396 44.9283 132.619 38.7553 134.725 42.8223C136.831 46.8892 122.742 61.2805 122.742 61.2805L123.396 44.9283Z" fill="#EAA0A0"/>
<path d="M123.396 71.8249C123.396 71.8249 132.619 65.6518 134.725 69.7188C136.831 73.7857 122.742 88.177 122.742 88.177L123.396 71.8249Z" fill="#EAA0A0"/>
<path d="M123.396 90.1504C123.396 90.1504 132.619 83.9773 134.725 88.0442C136.831 92.1111 122.742 106.503 122.742 106.503L123.396 90.1504Z" fill="#EAA0A0"/>
<path d="M117.025 38.0117H66.3902C62.6198 38.0117 59.5625 41.0682 59.5625 44.8395V129.099V148.322C59.5625 152.127 62.6556 155.15 66.3902 155.15H117.025C120.791 155.15 123.852 152.097 123.852 148.322V64.0627V44.8395C123.852 41.0346 120.759 38.0117 117.025 38.0117Z" fill="#063E70"/>
<path opacity="0.2" d="M64.1784 125.021C64.1784 125.021 55.0199 147.44 55.9084 151.679C56.797 155.919 62.3545 161.587 75.9903 159.697C89.6261 157.808 99.051 155.282 99.051 155.282C99.051 155.282 99.6209 125.025 99.051 123.491C98.4811 121.956 73.9639 111.065 72.9993 111.065C72.0348 111.065 64.1784 125.021 64.1784 125.021Z" fill="#FFC0BB"/>
<path d="M120.545 47.3174H62.875V145.844H120.545V47.3174Z" fill="white"/>
<path d="M103.478 44.2208H80.0353C79.6943 44.2208 79.418 43.9445 79.418 43.6035C79.418 43.2627 79.6943 42.9863 80.0353 42.9863H103.478C103.819 42.9863 104.096 43.2627 104.096 43.6035C104.096 43.9445 103.819 44.2208 103.478 44.2208Z" fill="white"/>
<path d="M58.4157 106.914C58.4157 106.914 58.7636 108.207 59.5505 108.844L60.4855 98.0898C60.4855 98.0898 67.1905 90.5969 65.5705 80.4912C65.0158 77.0316 63.2953 73.8479 60.6637 71.5347C59.1615 70.2143 57.5115 69.3319 56.5393 70.5741C56.5393 70.5741 48.9435 88.6622 43.6953 101.875L58.4157 106.914Z" fill="#FFC0BB"/>
<path d="M120.545 140.016H62.875V145.844H120.545V140.016Z" fill="#FFCB83"/>
<path d="M120.545 47.3174H62.875V52.5461H120.545V47.3174Z" fill="#FFCB83"/>
<path d="M57.9068 81.1979C60.0055 80.2324 61.1014 74.7716 61.4937 72.3169C59.8094 70.6225 57.6967 69.0977 56.541 70.5741C56.541 70.5741 54.8684 74.5571 52.5508 80.1502C54.1355 81.0322 56.3377 81.9198 57.9068 81.1979Z" fill="#EAA0A0"/>
<path d="M110.791 112.208C110.791 112.208 103.002 112.862 102.73 114.932C102.458 117.001 103.057 120.651 110.41 121.359H118.027C118.027 121.359 115.748 115.04 115.857 114.823C115.966 114.605 110.791 112.208 110.791 112.208Z" fill="#EFADAB"/>
<path d="M98.2902 143.084C97.2353 143.644 96.8681 144.978 97.4671 146.011C101.051 152.192 115.304 176.76 116.588 178.758C118.059 181.046 121.654 186.438 133.582 189.216C145.511 191.994 150.413 200.001 150.413 200.001H187.18C187.18 200.001 178.519 186.275 171.329 150.652C171.329 150.652 165.773 121.076 155.315 122.056C155.315 122.056 148.943 115.357 142.733 116.664C142.733 116.664 130.968 109.638 124.268 109.638L108.176 90.6192C106.583 88.737 103.776 88.3681 101.818 89.8664C101.188 90.3484 100.707 90.9855 100.575 91.8265C100.084 94.9312 104.17 102.775 110.706 112.252C117.242 121.73 133.419 151.796 126.393 165.032C126.393 165.032 119.203 159.64 112.994 150.979C107.794 143.727 101.677 141.287 98.2902 143.084Z" fill="#FFC0BB"/>
<path d="M124.33 109.645C126.465 111.472 128.467 113.455 130.357 115.538C132.239 117.586 134.043 119.83 135.682 122.093C137.188 124.178 138.953 126.986 140.075 129.322C141.597 132.409 142.279 134.698 142.731 137.327L142.683 137.337C142.107 134.601 141.027 131.991 139.733 129.499C138.841 127.745 137.087 124.843 135.284 122.378C133.656 120.098 131.898 117.912 130.065 115.792C128.339 113.801 126.168 111.471 124.297 109.68L124.33 109.645Z" fill="#EAA0A0"/>
<path d="M142.63 116.613C144.367 117.502 145.916 118.743 147.286 120.144C149.861 122.739 151.97 126.298 153.023 130.302C153.445 132.08 153.718 133.285 153.762 136.097L153.713 136.101C153.552 134.174 153.2 132.264 152.653 130.411C151.471 126.565 149.614 123.274 147.001 120.405C145.77 119.058 144.162 117.605 142.605 116.656L142.63 116.613Z" fill="#EAA0A0"/>
<path d="M155.188 121.925C156.725 123.087 158.274 125.138 159.028 126.528C160.77 129.519 161.593 132.696 161.737 136.095L161.689 136.102C161.034 132.315 160.39 130.166 158.623 126.749C158.046 125.598 156.56 123.341 155.16 121.955L155.188 121.925Z" fill="#EAA0A0"/>
<path d="M105.715 150.691C106.041 149.037 104.113 146.414 102.364 144.434C101.271 143.199 99.5472 142.737 98.0305 143.254C97.183 143.881 96.9247 145.07 97.4705 146.011C98.4337 147.672 100.167 150.661 102.213 154.183C103.744 153.403 105.413 152.223 105.715 150.691Z" fill="#EAA0A0"/>
<path d="M107.257 98.0835C108.186 97.8973 112.404 96.4951 112.146 95.7261L107.986 90.8099C107.16 89.8336 106.007 89.2658 104.815 89.1531H104.815C104.808 89.1525 104.802 89.1517 104.795 89.1511C104.761 89.1481 104.685 89.1424 104.578 89.1426C104.02 89.1432 102.647 89.3018 102.345 90.812C102.047 92.3035 104.516 95.9286 105.604 97.436C105.981 97.9571 106.627 98.2098 107.257 98.0835Z" fill="#EAA0A0"/>
<path d="M33.4241 174.306C38.0317 177.137 52.8652 185.601 68.2033 187.405C69.1017 187.511 69.7338 188.335 69.4681 189.046L66.7887 196.223C66.6115 196.698 66.0776 196.975 65.4783 196.903C60.958 196.354 42.3073 193.546 29.1845 183.395C28.7378 183.049 28.5494 182.525 28.7164 182.078L31.4509 174.754C31.7084 174.064 32.674 173.845 33.4241 174.306Z" fill="#064C91"/>
<path d="M32.1826 181.207L31.9274 181.112C31.7148 181.033 31.6069 180.796 31.6862 180.584L32.5875 178.169C32.6669 177.957 32.9034 177.849 33.116 177.928L33.3712 178.024C33.5837 178.103 33.6917 178.34 33.6123 178.552L32.7111 180.966C32.6318 181.179 32.3951 181.287 32.1826 181.207Z" fill="#063E70"/>
<path d="M34.8995 182.892L34.7249 182.827C34.4901 182.739 34.3708 182.478 34.4585 182.243L35.3296 179.909C35.4173 179.675 35.6787 179.555 35.9134 179.643L36.0882 179.708C36.323 179.796 36.4422 180.057 36.3546 180.292L35.4833 182.626C35.3957 182.86 35.1343 182.98 34.8995 182.892Z" fill="#063E70"/>
<path d="M37.6653 184.582L37.4904 184.516C37.2557 184.429 37.1365 184.167 37.2241 183.932L38.0953 181.599C38.183 181.364 38.4443 181.245 38.679 181.332L38.8539 181.398C39.0886 181.485 39.2079 181.747 39.1202 181.981L38.249 184.315C38.1614 184.55 37.9 184.669 37.6653 184.582Z" fill="#063E70"/>
<path d="M40.509 185.955L40.3343 185.889C40.0995 185.802 39.9802 185.54 40.0678 185.305L40.9391 182.972C41.0268 182.737 41.2882 182.618 41.5228 182.705L41.6976 182.771C41.9324 182.858 42.0516 183.12 41.964 183.354L41.0927 185.688C41.0052 185.923 40.7439 186.042 40.509 185.955Z" fill="#063E70"/>
<path d="M43.3059 187.551L43.1311 187.486C42.8963 187.398 42.7771 187.137 42.8647 186.902L43.736 184.569C43.8236 184.334 44.085 184.215 44.3198 184.302L44.4945 184.367C44.7293 184.455 44.8485 184.716 44.761 184.951L43.8897 187.285C43.802 187.52 43.5406 187.639 43.3059 187.551Z" fill="#063E70"/>
<path d="M46.2279 188.817L46.053 188.752C45.8182 188.664 45.699 188.403 45.7866 188.168L46.6579 185.834C46.7455 185.599 47.0068 185.48 47.2415 185.568L47.4165 185.633C47.6512 185.721 47.7705 185.982 47.6828 186.217L46.8115 188.55C46.7239 188.785 46.4626 188.904 46.2279 188.817Z" fill="#063E70"/>
<path d="M49.2451 189.944L48.9899 189.848C48.7773 189.769 48.6694 189.532 48.7487 189.32L49.6499 186.906C49.7293 186.693 49.9659 186.585 50.1785 186.665L50.4337 186.76C50.6462 186.839 50.7542 187.076 50.6748 187.289L49.7737 189.703C49.6943 189.915 49.4576 190.023 49.2451 189.944Z" fill="#063E70"/>
<path d="M52.2394 190.887L52.0647 190.822C51.8299 190.734 51.7107 190.473 51.7983 190.238L52.6695 187.905C52.7571 187.67 53.0185 187.551 53.2533 187.638L53.428 187.703C53.6627 187.791 53.7821 188.052 53.6943 188.287L52.8231 190.621C52.7355 190.855 52.4741 190.975 52.2394 190.887Z" fill="#063E70"/>
<path d="M55.4404 191.53L55.1852 191.434C54.9726 191.355 54.8647 191.118 54.944 190.906L55.8452 188.492C55.9246 188.279 56.1612 188.171 56.3738 188.251L56.629 188.346C56.8416 188.425 56.9495 188.662 56.8702 188.875L55.9689 191.288C55.8896 191.501 55.653 191.609 55.4404 191.53Z" fill="#063E70"/>
<path d="M58.5185 192.38L58.2633 192.285C58.0508 192.206 57.9428 191.969 58.0222 191.756L58.9233 189.342C59.0027 189.13 59.2394 189.022 59.4519 189.101L59.7071 189.197C59.9197 189.276 60.0276 189.512 59.9483 189.725L59.0471 192.139C58.9677 192.351 58.7311 192.46 58.5185 192.38Z" fill="#063E70"/>
<path d="M61.6692 192.901L61.4944 192.836C61.2596 192.748 61.1404 192.487 61.228 192.252L62.0993 189.918C62.1869 189.683 62.4482 189.564 62.6829 189.652L62.8578 189.717C63.0925 189.805 63.2118 190.066 63.1241 190.301L62.2529 192.634C62.1653 192.869 61.9039 192.988 61.6692 192.901Z" fill="#063E70"/>
<path d="M64.9091 193.44L64.654 193.344C64.4414 193.265 64.3334 193.028 64.4128 192.816L65.3141 190.402C65.3934 190.189 65.63 190.081 65.8426 190.161L66.0977 190.256C66.3103 190.335 66.4183 190.572 66.3389 190.785L65.4377 193.199C65.3583 193.411 65.1216 193.519 64.9091 193.44Z" fill="#063E70"/>
<path d="M42.5322 190.925L42.5448 190.891C42.4961 190.885 42.4475 190.874 42.3999 190.856L38.77 189.501C38.4117 189.367 38.2377 188.943 38.3822 188.556L41.6552 179.789C41.7997 179.402 42.2089 179.196 42.5673 179.33L46.1972 180.685C46.4097 180.764 46.5566 180.946 46.6115 181.161C46.8963 181.286 47.1832 181.41 47.4737 181.534C47.5708 180.797 47.1923 180.081 46.5169 179.829L42.8871 178.473C42.0916 178.176 41.1834 178.634 40.8625 179.494L37.5895 188.26C37.2687 189.12 37.6548 190.061 38.4503 190.358L42.0802 191.713C42.6246 191.916 43.2217 191.765 43.6474 191.375C43.2761 191.228 42.9044 191.079 42.5322 190.925Z" fill="#EEFBFF"/>
<path d="M41.7329 183.968L40.1539 183.378C39.8709 183.272 39.5489 183.435 39.4348 183.74C39.3207 184.046 39.4576 184.38 39.7406 184.485L41.3196 185.075L41.7329 183.968Z" fill="#FFCB83"/>
<path opacity="0.2" d="M150.416 200.001H187.182C187.182 200.001 181.504 191.001 175.526 168.665C172.903 185.111 158.43 184.163 152.686 185.075C146.073 186.126 120.401 180.774 116.805 179.087C118.404 181.529 122.197 186.564 133.585 189.216C145.514 191.994 150.416 200.001 150.416 200.001Z" fill="#FFC0BB"/>
<path opacity="0.2" d="M112.652 115.233C119.861 126.816 132.794 153.423 126.396 165.031L130.643 169.224C130.643 169.224 141.373 157.336 124.297 131.12C120.324 125.019 116.374 119.741 112.652 115.233Z" fill="#FFC0BB"/>
<path d="M134.941 56.316C135.258 54.9366 136.493 53.9075 137.968 53.9075C138.239 53.9075 138.502 53.9423 138.752 54.0075C139.481 52.45 141.061 51.3708 142.894 51.3708C143.368 51.3708 143.825 51.443 144.255 51.5768C145.241 49.9431 147.034 48.8506 149.082 48.8506C151.518 48.8506 153.594 50.3969 154.38 52.5618C154.936 52.2514 155.577 52.074 156.26 52.074C158.395 52.074 160.127 53.8053 160.127 55.9409C160.127 56.0676 160.12 56.1926 160.108 56.3161L134.941 56.316Z" fill="white"/>
<path d="M54.8828 16.3445C55.1096 15.3573 55.993 14.6209 57.0489 14.6209C57.2428 14.6209 57.4308 14.6457 57.6101 14.6925C58.1313 13.578 59.2624 12.8056 60.574 12.8056C60.913 12.8056 61.2401 12.8572 61.5477 12.953C62.2537 11.7838 63.5366 11.002 65.0021 11.002C66.7456 11.002 68.2307 12.1086 68.7935 13.6578C69.1917 13.4357 69.6503 13.3087 70.1387 13.3087C71.667 13.3087 72.9059 14.5475 72.9059 16.0759C72.9059 16.1666 72.9013 16.256 72.8928 16.3444L54.8828 16.3445Z" fill="white"/>
<path d="M147.365 95.2871C147.365 95.2871 146.986 99.0217 144.039 99.2802C146.986 99.5386 147.365 103.273 147.365 103.273C147.365 103.273 147.744 99.5387 150.691 99.2802C147.744 99.0218 147.365 95.2871 147.365 95.2871Z" fill="white"/>
<path d="M142.18 36.1367C142.18 36.1367 141.908 38.8165 139.793 39.0019C141.908 39.1874 142.18 41.867 142.18 41.867C142.18 41.867 142.451 39.1873 144.566 39.0019C142.451 38.8165 142.18 36.1367 142.18 36.1367Z" fill="white"/>
<path d="M50.5315 21.7744C50.5315 21.7744 50.3606 23.459 49.0312 23.5756C50.3606 23.6922 50.5315 25.3767 50.5315 25.3767C50.5315 25.3767 50.7023 23.6922 52.0317 23.5756C50.7023 23.459 50.5315 21.7744 50.5315 21.7744Z" fill="white"/>
<path d="M39.6971 67.6846C39.6971 67.6846 39.3183 71.4194 36.3711 71.6779C39.3183 71.9362 39.6971 75.671 39.6971 75.671C39.6971 75.671 40.0759 71.9363 43.0231 71.6779C40.0759 71.4194 39.6971 67.6846 39.6971 67.6846Z" fill="white"/>
<path d="M155.161 84.9541C155.161 84.9541 154.911 87.4247 152.961 87.5956C154.911 87.7666 155.161 90.237 155.161 90.237C155.161 90.237 155.412 87.7665 157.361 87.5956C155.412 87.4247 155.161 84.9541 155.161 84.9541Z" fill="white"/>
<path d="M148.939 28.9883C148.939 28.9883 148.802 30.3361 147.738 30.4292C148.802 30.5226 148.939 31.8703 148.939 31.8703C148.939 31.8703 149.075 30.5226 150.139 30.4292C149.075 30.3361 148.939 28.9883 148.939 28.9883Z" fill="white"/>
<path d="M45.8955 58.9463C45.8955 58.9463 45.6449 61.417 43.6953 61.5879C45.645 61.7589 45.8955 64.2294 45.8955 64.2294C45.8955 64.2294 46.1462 61.7587 48.0957 61.5879C46.1461 61.417 45.8955 58.9463 45.8955 58.9463Z" fill="white"/>
<path d="M64.3267 25.4102C64.3267 25.4102 64.1957 26.7026 63.1758 26.792C64.1957 26.8814 64.3267 28.1739 64.3267 28.1739C64.3267 28.1739 64.4578 26.8814 65.4777 26.792C64.4578 26.7025 64.3267 25.4102 64.3267 25.4102Z" fill="white"/>
<path d="M143.77 77.5352C143.77 77.5352 143.657 78.6406 142.785 78.7171C143.657 78.7936 143.77 79.8989 143.77 79.8989C143.77 79.8989 143.882 78.7936 144.754 78.7171C143.882 78.6406 143.77 77.5352 143.77 77.5352Z" fill="white"/>
<path d="M42.3125 82.2686C42.3125 82.2686 42.2004 83.374 41.3281 83.4505C42.2005 83.527 42.3125 84.6324 42.3125 84.6324C42.3125 84.6324 42.4246 83.527 43.2969 83.4505C42.4247 83.374 42.3125 82.2686 42.3125 82.2686Z" fill="white"/>
<path d="M52.5536 30.8203C52.5536 30.8203 52.3322 33.0034 50.6094 33.1544C52.3321 33.3055 52.5536 35.4885 52.5536 35.4885C52.5536 35.4885 52.775 33.3055 54.4976 33.1544C52.775 33.0034 52.5536 30.8203 52.5536 30.8203Z" fill="white"/>
</g>
<path d="M13.1346 74.0082C11.6388 66.4397 22.9282 63.8961 24.7452 71.394C24.9095 72.0722 25.0151 72.8291 25.0481 73.6738C25.3998 82.6847 19.9489 92.4937 14.1462 90.8422C8.3435 89.1907 11.6845 83.0363 13.4429 79.3437C14.2633 77.6207 13.5204 75.96 13.1346 74.0082Z" fill="#14AD52"/>
<path d="M182.36 46.3546C179.052 45.2001 175.431 46.9614 174.186 50.2359C173.218 52.7818 172.11 56.3337 172.01 59.4571C171.829 65.0922 174.07 77.1863 182.639 80.1723C191.207 83.1585 196.32 75.2812 190.616 66.1663C188.179 62.273 189.395 48.8105 182.36 46.3546Z" fill="#14AD52"/>
</svg>
