<svg width="64" height="64" viewBox="0 0 64 64" fill="none" xmlns="http://www.w3.org/2000/svg">
<path fill-rule="evenodd" clip-rule="evenodd" d="M17.6627 33.6602C18.2181 33.1048 19.1186 33.1048 19.674 33.6602L32.0017 45.9879L44.3293 33.6602C44.8847 33.1048 45.7852 33.1048 46.3407 33.6602C46.8961 34.2156 46.8961 35.1161 46.3407 35.6715L33.0073 49.0049C32.4519 49.5603 31.5514 49.5603 30.996 49.0049L17.6627 35.6715C17.1072 35.1161 17.1072 34.2156 17.6627 33.6602Z" fill="white"/>
<path fill-rule="evenodd" clip-rule="evenodd" d="M17.6627 14.9937C18.2181 14.4383 19.1186 14.4383 19.674 14.9937L32.0017 27.3214L44.3293 14.9937C44.8847 14.4383 45.7852 14.4383 46.3407 14.9937C46.8961 15.5491 46.8961 16.4496 46.3407 17.005L33.0073 30.3384C32.4519 30.8938 31.5514 30.8938 30.996 30.3384L17.6627 17.005C17.1072 16.4496 17.1072 15.5491 17.6627 14.9937Z" fill="white"/>
</svg>
