<svg width="40" height="40" viewBox="0 0 40 40" fill="none" xmlns="http://www.w3.org/2000/svg">
<path d="M36.9916 20.54C36.9972 20.3605 37 20.1804 37 19.9995C37 19.673 37.0063 19.8373 36.9881 19.5153C36.5782 19.5009 36.1093 19.4874 35.697 19.4756C32.7222 19.3905 29.7054 19.3043 26.8718 18.3373C24.5288 17.5136 22.5596 15.6684 21.741 13.3152C20.625 10.2492 20.5727 6.84918 20.5231 3.61894C20.5199 3.41508 20.5167 3.21034 20.5133 3.00712C20.3428 3.00206 19.6717 3.00716 19.5 3.00716C19.4795 3.51316 19.4386 4.04555 19.4226 4.55386C19.3391 7.21016 19.255 9.88535 18.5231 12.4501C17.8736 14.8416 16.1919 16.9644 13.9142 18.0036C10.9693 19.2692 7.73347 19.3671 4.55989 19.4631C4.04002 19.4788 3.52174 19.4944 3.00677 19.5151C3.00227 19.676 3 19.8375 3 19.9995C3 20.1824 3.00289 20.3646 3.00862 20.546C3.5294 20.5643 4.05498 20.577 4.5832 20.5896C7.95679 20.6706 11.4379 20.7542 14.4718 22.3407C16.8741 23.563 18.2888 26.1052 18.7929 28.6649C19.3177 31.1632 19.3786 33.7204 19.4393 36.2627C19.445 36.5057 19.4508 36.7485 19.4571 36.991C19.6374 36.9967 19.8183 36.9995 20 36.9995C20.1707 36.9995 20.3408 36.997 20.5103 36.992C20.5183 36.6533 20.525 36.3134 20.5317 35.9728C20.5944 32.7782 20.6584 29.5141 21.821 26.5007C22.7375 24.0354 24.9737 22.199 27.4857 21.4875C30.4097 20.6873 33.4554 20.6192 36.468 20.5517L36.9916 20.54Z" fill="white"/>
<path d="M19.4751 3.03244C15.9903 3.21552 12.5292 4.33161 9.75024 6.46317C5.67199 9.47469 3.00277 14.4377 3.00306 19.5158C3.51925 19.495 4.0387 19.4793 4.55982 19.4636C7.73342 19.3676 10.9693 19.2697 13.9142 18.0041C16.1919 16.9648 17.8736 14.8421 18.5231 12.4506C19.255 9.88583 19.3391 7.21064 19.4226 4.55434C19.4386 4.04603 19.4546 3.53844 19.4751 3.03244Z" fill="black"/>
<path d="M29.2741 5.81358C26.6879 4.0629 23.5976 3.25689 20.5131 3C20.5172 3.23686 20.5208 3.47414 20.5245 3.71187C20.5742 6.94236 20.6249 10.2494 21.741 13.3157C22.5596 15.6688 24.5288 17.5141 26.8718 18.3378C29.706 19.305 32.7236 19.3911 35.699 19.4761C36.1298 19.4885 36.5598 19.5008 36.9881 19.5158C36.9021 14.0509 33.8829 8.76008 29.2741 5.81358Z" fill="black"/>
<path d="M36.47 20.5521C33.4568 20.6196 30.4104 20.6876 27.4857 21.488C24.9737 22.1995 22.7375 24.0359 21.821 26.5012C20.6584 29.5146 20.5944 32.7787 20.5317 35.9733C20.5249 36.3154 20.5182 36.6568 20.5102 36.997C24.7513 36.8257 28.9419 35.0868 31.9374 32.0753C35.0455 29.0787 36.8902 24.8419 37 20.5403L36.47 20.5521Z" fill="black"/>
<path d="M4.5832 20.59C4.0521 20.5774 3.52367 20.5647 3.00009 20.5462C2.98532 24.5644 4.71136 28.4911 7.39542 31.4553C10.4532 34.824 14.9108 36.8257 19.4573 37C19.451 36.7546 19.4451 36.509 19.4393 36.2632C19.3786 33.7209 19.3177 31.1637 18.7929 28.6654C18.2888 26.1056 16.8741 23.5635 14.4718 22.3412C11.4379 20.7547 7.95679 20.6711 4.5832 20.59Z" fill="black"/>
</svg>
