<svg width="40" height="40" viewBox="0 0 40 40" fill="none" xmlns="http://www.w3.org/2000/svg">
<g clip-path="url(#clip0_275_5069)">
<path d="M20 0C14.6969 0 9.60625 2.10844 5.85938 5.85781C2.10863 9.60868 0.00103897 14.6956 0 20C0 25.3022 2.10938 30.3928 5.85938 34.1422C9.60625 37.8916 14.6969 40 20 40C25.3031 40 30.3937 37.8916 34.1406 34.1422C37.8906 30.3928 40 25.3022 40 20C40 14.6978 37.8906 9.60719 34.1406 5.85781C30.3937 2.10844 25.3031 0 20 0Z" fill="url(#paint0_linear_275_5069)"/>
<path fill-rule="evenodd" clip-rule="evenodd" d="M15.5806 8.83059C16.7527 7.65848 18.3424 7 20 7C21.6576 7 23.2473 7.65848 24.4195 8.83059C25.5916 10.0027 26.25 11.5924 26.25 13.25C26.25 14.9076 25.5916 16.4973 24.4195 17.6695C23.2473 18.8416 21.6576 19.5 20 19.5C18.3424 19.5 16.7527 18.8416 15.5806 17.6695C14.4085 16.4973 13.75 14.9076 13.75 13.25C13.75 11.5924 14.4085 10.0027 15.5806 8.83059ZM20 11.1667C19.4475 11.1667 18.9176 11.3862 18.5269 11.7769C18.1362 12.1676 17.9167 12.6975 17.9167 13.25C17.9167 13.8026 18.1362 14.3325 18.5269 14.7232C18.9176 15.1139 19.4475 15.3334 20 15.3334C20.5526 15.3334 21.0825 15.1139 21.4732 14.7232C21.8639 14.3325 22.0834 13.8026 22.0834 13.25C22.0834 12.6975 21.8639 12.1676 21.4732 11.7769C21.0825 11.3862 20.5526 11.1667 20 11.1667Z" fill="white"/>
<path fill-rule="evenodd" clip-rule="evenodd" d="M12.9277 20.6506C13.4426 19.6216 14.6941 19.2048 15.7231 19.7197C16.7219 20.2195 18.2652 20.5362 19.9554 20.5416C19.97 20.5413 19.9845 20.5411 19.9992 20.5411C20.0138 20.5411 20.0284 20.5413 20.043 20.5416C21.7332 20.5362 23.2765 20.2195 24.2753 19.7197C25.3042 19.2048 26.5558 19.6216 27.0706 20.6506C27.5855 21.6795 27.1688 22.9311 26.1398 23.4459C25.2869 23.8727 24.3204 24.1814 23.3115 24.3866L26.808 28.5825C27.5446 29.4664 27.4252 30.7801 26.5413 31.5166C25.6573 32.2532 24.3437 32.1338 23.6071 31.2499L19.9992 26.9204L16.3913 31.2499C15.6547 32.1338 14.341 32.2532 13.4571 31.5166C12.5732 30.7801 12.4538 29.4664 13.1904 28.5825L16.6869 24.3866C15.678 24.1814 14.7115 23.8727 13.8586 23.4459C12.8296 22.9311 12.4128 21.6795 12.9277 20.6506Z" fill="white"/>
</g>
<defs>
<linearGradient id="paint0_linear_275_5069" x1="2000" y1="0" x2="2000" y2="4000" gradientUnits="userSpaceOnUse">
<stop stop-color="#E37E36"/>
<stop offset="1" stop-color="#229ED9"/>
</linearGradient>
<clipPath id="clip0_275_5069">
<rect width="40" height="40" fill="white"/>
</clipPath>
</defs>
</svg>
