<svg width="171" height="171" viewBox="0 0 171 171" fill="none" xmlns="http://www.w3.org/2000/svg">
<rect width="171" height="171" fill="white"/>
<path d="M35.1519 91V83.398L32.0579 91H30.7979L27.7179 83.412V91H26.4579V81.62H28.3199L31.5259 89.544L34.7599 81.62H36.4819V91H35.1519ZM42.0116 90.006C43.1456 90.006 43.7196 89.712 44.3776 89.292H44.5036V90.454C43.8456 90.846 43.0336 91.126 42.0256 91.126C39.7156 91.126 38.1616 89.74 38.1616 87.5C38.1616 85.484 39.5616 83.86 41.7596 83.86C43.8456 83.86 45.1056 85.316 44.8816 87.864H39.4356C39.5756 89.166 40.4716 90.006 42.0116 90.006ZM41.7456 84.98C40.4436 84.98 39.7016 85.708 39.4916 86.786H43.5936C43.4676 85.708 42.8376 84.98 41.7456 84.98ZM51.6089 90.72C51.0629 91.014 50.3349 91.126 49.6069 91.126C47.5489 91.126 46.0229 89.558 46.0229 87.5C46.0229 85.428 47.5489 83.86 49.6069 83.86C50.3349 83.86 51.0629 83.958 51.6089 84.252V85.456H51.4829C50.9369 85.12 50.4469 84.98 49.6069 84.98C48.1229 84.98 47.2829 86.044 47.2829 87.5C47.2829 88.942 48.1229 90.006 49.6069 90.006C50.4469 90.006 50.9369 89.852 51.4829 89.516H51.6089V90.72ZM52.7358 85.12V84H58.8958V85.12H56.4458V91H55.1858V85.12H52.7358ZM63.1694 91.126C61.1114 91.126 59.5854 89.558 59.5854 87.5C59.5854 85.428 61.1114 83.86 63.1694 83.86C65.2274 83.86 66.7534 85.428 66.7534 87.5C66.7534 89.558 65.2274 91.126 63.1694 91.126ZM63.1694 90.006C64.6534 90.006 65.4934 88.942 65.4934 87.5C65.4934 86.044 64.6534 84.98 63.1694 84.98C61.6854 84.98 60.8454 86.044 60.8454 87.5C60.8454 88.942 61.6854 90.006 63.1694 90.006ZM71.6128 84H77.6328V91H76.3728V85.12H72.8728V91H71.6128V84ZM82.7612 91.126C80.7032 91.126 79.1772 89.558 79.1772 87.5C79.1772 85.428 80.7032 83.86 82.7612 83.86C84.8192 83.86 86.3452 85.428 86.3452 87.5C86.3452 89.558 84.8192 91.126 82.7612 91.126ZM82.7612 90.006C84.2452 90.006 85.0852 88.942 85.0852 87.5C85.0852 86.044 84.2452 84.98 82.7612 84.98C81.2772 84.98 80.4372 86.044 80.4372 87.5C80.4372 88.942 81.2772 90.006 82.7612 90.006ZM93.6562 91H87.9163V92.82H86.7963V89.88H87.5243C88.1683 89.082 88.4203 87.192 88.5463 84H93.6562V89.88H94.7763V92.82H93.6562V91ZM89.6103 85.12C89.4843 87.626 89.3023 89.068 88.7983 89.88H92.3963V85.12H89.6103ZM108.872 92.68C106.926 92.68 105.204 92.078 103.02 91.07C100.724 90.692 99.1141 88.76 99.1141 86.31C99.1141 83.566 101.144 81.48 103.874 81.48C106.604 81.48 108.634 83.566 108.634 86.31C108.634 88.536 107.192 90.412 105.12 90.874C106.282 91.238 107.542 91.378 108.872 91.378V92.68ZM103.874 82.67C101.69 82.67 100.444 84.224 100.444 86.31C100.444 88.396 101.69 89.95 103.874 89.95C106.058 89.95 107.304 88.396 107.304 86.31C107.304 84.224 106.058 82.67 103.874 82.67ZM113.51 81.62C115.246 81.62 116.534 82.782 116.534 84.336C116.534 85.512 115.862 86.492 114.826 86.94L117.696 91H116.156L113.482 87.192H111.788V91H110.458V81.62H113.51ZM113.51 82.74H111.788V86.072H113.51C114.588 86.072 115.204 85.33 115.204 84.336C115.204 83.412 114.602 82.74 113.51 82.74ZM118.538 88.2V87.08H122.29V88.2H118.538ZM124.386 84H125.646V87.304L129.006 84H130.504L127.074 87.374L130.504 91H128.866L125.646 87.598V91H124.386V84ZM134.441 91.126C132.383 91.126 130.857 89.558 130.857 87.5C130.857 85.428 132.383 83.86 134.441 83.86C136.499 83.86 138.025 85.428 138.025 87.5C138.025 89.558 136.499 91.126 134.441 91.126ZM134.441 90.006C135.925 90.006 136.765 88.942 136.765 87.5C136.765 86.044 135.925 84.98 134.441 84.98C132.957 84.98 132.117 86.044 132.117 87.5C132.117 88.942 132.957 90.006 134.441 90.006ZM145.336 91H139.596V92.82H138.476V89.88H139.204C139.848 89.082 140.1 87.192 140.226 84H145.336V89.88H146.456V92.82H145.336V91ZM141.29 85.12C141.164 87.626 140.982 89.068 140.478 89.88H144.076V85.12H141.29Z" fill="black"/>
</svg>
