<svg width="40" height="40" viewBox="0 0 40 40" fill="none" xmlns="http://www.w3.org/2000/svg">
<g clip-path="url(#clip0_275_5074)">
<path d="M20 0C14.6969 0 9.60625 2.10844 5.85938 5.85781C2.10863 9.60868 0.00103897 14.6956 0 20C0 25.3022 2.10938 30.3928 5.85938 34.1422C9.60625 37.8916 14.6969 40 20 40C25.3031 40 30.3937 37.8916 34.1406 34.1422C37.8906 30.3928 40 25.3022 40 20C40 14.6978 37.8906 9.60719 34.1406 5.85781C30.3937 2.10844 25.3031 0 20 0Z" fill="url(#paint0_linear_275_5074)"/>
<path d="M9.05535 19.7891C14.8866 17.2491 18.7741 15.5744 20.7179 14.7653C26.2741 12.455 27.4272 12.0538 28.1803 12.0402C28.346 12.0375 28.7147 12.0784 28.9554 12.273C29.1554 12.437 29.2116 12.6589 29.2397 12.8147C29.2647 12.9703 29.2991 13.325 29.271 13.6019C28.971 16.7644 27.6679 24.4388 27.0054 27.9809C26.7272 29.4797 26.1741 29.9822 25.6397 30.0312C24.4772 30.1381 23.596 29.2638 22.471 28.5266C20.7116 27.3725 19.7179 26.6544 18.0085 25.5284C16.0335 24.2272 17.3147 23.5119 18.4397 22.3431C18.7335 22.0372 23.8522 17.3825 23.9491 16.9603C23.9616 16.9075 23.9741 16.7106 23.8554 16.6069C23.7397 16.5028 23.5679 16.5384 23.4429 16.5666C23.2647 16.6066 20.4554 18.4653 15.0054 22.1425C14.2085 22.6906 13.4866 22.9578 12.8366 22.9438C12.1241 22.9284 10.7491 22.54 9.72723 22.2081C8.47723 21.8009 7.48035 21.5856 7.56785 20.8941C7.6116 20.5341 8.10848 20.1656 9.05535 19.7891Z" fill="white"/>
</g>
<defs>
<linearGradient id="paint0_linear_275_5074" x1="2000" y1="0" x2="2000" y2="4000" gradientUnits="userSpaceOnUse">
<stop stop-color="#2AABEE"/>
<stop offset="1" stop-color="#229ED9"/>
</linearGradient>
<clipPath id="clip0_275_5074">
<rect width="40" height="40" fill="white"/>
</clipPath>
</defs>
</svg>
