<svg width="40" height="40" viewBox="0 0 40 40" fill="none" xmlns="http://www.w3.org/2000/svg">
<mask id="path-1-inside-1_275_5077" fill="white">
<path fill-rule="evenodd" clip-rule="evenodd" d="M10.9756 2.6688C16.7939 1.36821 22.8275 1.36821 28.6458 2.6688L29.2727 2.80935C30.9097 3.17495 32.4132 3.98726 33.6162 5.15601C34.8193 6.32477 35.6747 7.80419 36.0875 9.42989C37.5621 15.2414 37.5621 21.3292 36.0875 27.1408C35.6748 28.7662 34.8197 30.2455 33.617 31.4142C32.4143 32.583 30.9112 33.3954 29.2746 33.7613L28.6458 33.9C24.939 34.7288 21.1341 35.032 17.3428 34.8006L12.2923 39.3185C12.169 39.4286 12.0184 39.5036 11.8562 39.5357C11.6941 39.5678 11.5263 39.5559 11.3703 39.5011C11.2143 39.4464 11.0759 39.3508 10.9694 39.2243C10.8629 39.0979 10.7922 38.9452 10.7648 38.7822L9.90485 33.6485C8.3636 33.2213 6.96271 32.3942 5.84419 31.251C4.72567 30.1078 3.9293 28.6891 3.53581 27.1389C2.06098 21.3274 2.06098 15.2396 3.53581 9.42804C3.94842 7.80258 4.80357 6.32332 6.00626 5.15458C7.20894 3.98585 8.71208 3.1734 10.3487 2.8075L10.9756 2.6688Z"/>
</mask>
<path fill-rule="evenodd" clip-rule="evenodd" d="M10.9756 2.6688C16.7939 1.36821 22.8275 1.36821 28.6458 2.6688L29.2727 2.80935C30.9097 3.17495 32.4132 3.98726 33.6162 5.15601C34.8193 6.32477 35.6747 7.80419 36.0875 9.42989C37.5621 15.2414 37.5621 21.3292 36.0875 27.1408C35.6748 28.7662 34.8197 30.2455 33.617 31.4142C32.4143 32.583 30.9112 33.3954 29.2746 33.7613L28.6458 33.9C24.939 34.7288 21.1341 35.032 17.3428 34.8006L12.2923 39.3185C12.169 39.4286 12.0184 39.5036 11.8562 39.5357C11.6941 39.5678 11.5263 39.5559 11.3703 39.5011C11.2143 39.4464 11.0759 39.3508 10.9694 39.2243C10.8629 39.0979 10.7922 38.9452 10.7648 38.7822L9.90485 33.6485C8.3636 33.2213 6.96271 32.3942 5.84419 31.251C4.72567 30.1078 3.9293 28.6891 3.53581 27.1389C2.06098 21.3274 2.06098 15.2396 3.53581 9.42804C3.94842 7.80258 4.80357 6.32332 6.00626 5.15458C7.20894 3.98585 8.71208 3.1734 10.3487 2.8075L10.9756 2.6688Z" fill="#7C5FF7"/>
<path d="M28.6458 2.6688L29.0833 0.71724L29.0821 0.716968L28.6458 2.6688ZM10.9756 2.6688L11.4076 4.62158L11.4119 4.62063L10.9756 2.6688ZM29.2727 2.80935L28.8352 4.7609L28.8368 4.76126L29.2727 2.80935ZM33.6162 5.15601L32.2226 6.59052L32.2226 6.59052L33.6162 5.15601ZM36.0875 9.42989L38.026 8.93798L38.026 8.93772L36.0875 9.42989ZM36.0875 27.1408L38.026 27.6329L38.026 27.6327L36.0875 27.1408ZM33.617 31.4142L35.0108 32.8486L33.617 31.4142ZM29.2746 33.7613L29.7054 35.7144L29.711 35.7131L29.2746 33.7613ZM28.6458 33.9L28.215 31.947L28.2094 31.9482L28.6458 33.9ZM17.3428 34.8006L17.4646 32.8044L16.6315 32.7535L16.0094 33.31L17.3428 34.8006ZM12.2923 39.3185L13.6241 40.8106L13.6258 40.8092L12.2923 39.3185ZM11.8562 39.5357L12.2447 41.4976L12.2448 41.4976L11.8562 39.5357ZM11.3703 39.5011L12.0328 37.6141L12.0328 37.614L11.3703 39.5011ZM10.7648 38.7822L8.79227 39.1126L8.79255 39.1143L10.7648 38.7822ZM9.90485 33.6485L11.8774 33.3181L11.6669 32.0615L10.4391 31.7212L9.90485 33.6485ZM5.84419 31.251L7.27375 29.8523H7.27375L5.84419 31.251ZM3.53581 27.1389L1.59726 27.6309L1.59729 27.631L3.53581 27.1389ZM3.53581 9.42804L1.59729 8.93597L1.59726 8.93608L3.53581 9.42804ZM10.3487 2.8075L9.91666 0.854712L9.91231 0.855684L10.3487 2.8075ZM29.0821 0.716968C22.9765 -0.647843 16.6449 -0.647843 10.5393 0.716968L11.4119 4.62063C16.9429 3.38427 22.6786 3.38427 28.2095 4.62063L29.0821 0.716968ZM29.7102 0.857788L29.0833 0.71724L28.2083 4.62036L28.8352 4.7609L29.7102 0.857788ZM35.0099 3.72151C33.5416 2.29506 31.7065 1.30365 29.7087 0.857436L28.8368 4.76126C30.1128 5.04625 31.2848 5.67946 32.2226 6.59052L35.0099 3.72151ZM38.026 8.93772C37.5222 6.95357 36.4782 5.14796 35.0099 3.72151L32.2226 6.59052C33.1604 7.50158 33.8272 8.65481 34.149 9.92207L38.026 8.93772ZM38.026 27.6327C39.5826 21.4983 39.5826 15.0723 38.026 8.93798L34.1489 9.9218C35.5417 15.4105 35.5417 21.1602 34.1489 26.6489L38.026 27.6327ZM35.0108 32.8486C36.4787 31.4221 37.5224 29.6167 38.026 27.6329L34.1489 26.6487C33.8273 27.9158 33.1607 29.0689 32.2232 29.9799L35.0108 32.8486ZM29.711 35.7131C31.7084 35.2666 33.543 34.275 35.0108 32.8486L32.2232 29.9799C31.2857 30.891 30.114 31.5243 28.8382 31.8095L29.711 35.7131ZM29.0766 35.8531L29.7054 35.7144L28.8438 31.8083L28.215 31.947L29.0766 35.8531ZM17.221 36.7969C21.1995 37.0397 25.1924 36.7216 29.0822 35.8518L28.2094 31.9482C24.6857 32.7361 21.0686 33.0243 17.4646 32.8044L17.221 36.7969ZM13.6258 40.8092L18.6762 36.2913L16.0094 33.31L10.9589 37.8279L13.6258 40.8092ZM12.2448 41.4976C12.7577 41.396 13.234 41.1588 13.6241 40.8106L10.9606 37.8264C11.104 37.6984 11.2791 37.6112 11.4677 37.5738L12.2448 41.4976ZM10.7077 41.3882C11.2011 41.5614 11.7319 41.5992 12.2447 41.4976L11.4677 37.5738C11.6563 37.5365 11.8514 37.5504 12.0328 37.6141L10.7077 41.3882ZM9.43968 40.5128C9.77652 40.9127 10.2144 41.215 10.7078 41.3882L12.0328 37.614C12.2142 37.6777 12.3752 37.7889 12.4991 37.9359L9.43968 40.5128ZM8.79255 39.1143C8.87938 39.63 9.10285 40.1129 9.43968 40.5128L12.4991 37.9359C12.6229 38.083 12.7051 38.2605 12.737 38.4501L8.79255 39.1143ZM7.93234 33.9789L8.79227 39.1126L12.7373 38.4518L11.8774 33.3181L7.93234 33.9789ZM4.41463 32.6497C5.77976 34.0449 7.48953 35.0544 9.37061 35.5758L10.4391 31.7212C9.23767 31.3882 8.14565 30.7434 7.27375 29.8523L4.41463 32.6497ZM1.59729 27.631C2.07754 29.523 3.04949 31.2544 4.41463 32.6497L7.27375 29.8523C6.40185 28.9611 5.78107 27.8553 5.47434 26.6469L1.59729 27.631ZM1.59726 8.93608C0.0404954 15.0705 0.0404954 21.4965 1.59726 27.6309L5.47436 26.647C4.08146 21.1583 4.08146 15.4087 5.47436 9.92L1.59726 8.93608ZM4.61243 3.72027C3.14457 5.14669 2.10088 6.95211 1.59729 8.93597L5.47433 9.92012C5.79597 8.65305 6.46257 7.49994 7.40008 6.5889L4.61243 3.72027ZM9.91231 0.855684C7.91485 1.30227 6.08029 2.29385 4.61243 3.72027L7.40008 6.5889C8.33759 5.67785 9.50931 5.04454 10.7851 4.75931L9.91231 0.855684ZM10.5436 0.716018L9.91666 0.854717L10.7807 4.76028L11.4076 4.62158L10.5436 0.716018Z" fill="white" mask="url(#path-1-inside-1_275_5077)"/>
<path d="M11.5449 9.47359C11.8438 9.29672 12.1943 9.22754 12.538 9.27756L12.5343 9.27571C12.8543 9.33694 13.1425 9.50918 13.348 9.76208C14.2901 10.8367 15.1244 12.0012 15.839 13.2388C16.3069 14.0673 16.0036 14.9069 15.5671 15.2619L14.6573 15.9943C14.1894 16.3493 14.2523 17.0447 14.2523 17.0447C14.2523 17.0447 15.6004 22.158 20.6509 23.447L20.6694 23.4359C20.6694 23.4359 21.3462 23.4988 21.7198 23.0439L22.4466 22.1266C22.7869 21.6717 23.6283 21.3998 24.4568 21.8492C25.6933 22.5685 26.8581 23.4045 27.9354 24.3458C28.4717 24.7952 28.5974 25.4572 28.2257 26.16V26.1729C27.8299 26.8701 27.3214 27.497 26.7204 28.0296C26.2283 28.4767 25.6007 28.7462 24.9376 28.7952C24.7286 28.7952 24.5215 28.7638 24.2941 28.6935V28.6824C23.5155 28.4531 22.2191 27.9039 20.0832 26.7406C18.2146 25.7072 16.4857 24.4394 14.9384 22.968L14.8866 22.9237L14.8441 22.8737L14.7738 22.8219L14.7294 22.7591C13.2624 21.2171 12.0006 19.4922 10.9753 17.6272C10.1801 16.2994 9.52912 14.8884 9.0298 13.4219L9 13.4053V12.1525C9.11453 11.7706 9.33344 11.3815 9.66782 10.9956C10.2004 10.3927 10.8255 9.88044 11.519 9.47359H11.5449Z" fill="white"/>
<path d="M20.4169 7.32551C20.5903 7.15211 20.8255 7.05469 21.0707 7.05469C23.8558 7.05469 26.2691 7.98304 28.1758 9.80462L28.1943 9.82311C29.1632 10.8016 29.921 11.9686 30.4208 13.2517C30.9185 14.5289 31.1458 15.8953 31.0884 17.2648C31.0781 17.51 30.9708 17.7411 30.7901 17.9072C30.6095 18.0733 30.3702 18.1609 30.1249 18.1506C29.8797 18.1403 29.6486 18.033 29.4825 17.8523C29.4002 17.7628 29.3364 17.658 29.2946 17.5439C29.2529 17.4298 29.234 17.3085 29.2391 17.1871C29.2872 16.0738 29.1023 14.9624 28.6973 13.9212C28.2941 12.8819 27.6783 11.9332 26.8886 11.1324C25.3519 9.66777 23.4101 8.904 21.0707 8.904C20.8255 8.904 20.5903 8.80658 20.4169 8.63318C20.2435 8.45977 20.146 8.22458 20.146 7.97934C20.146 7.73411 20.2435 7.49892 20.4169 7.32551Z" fill="white"/>
<path d="M20.354 10.3658C20.5274 10.1924 20.7626 10.095 21.0078 10.095L21.1003 10.0931L21.1317 10.0968C23.1993 10.2355 24.9173 10.9456 26.1693 12.2882V12.2919C27.3935 13.6124 28.0112 15.2675 27.9668 17.1852C27.9612 17.4305 27.8583 17.6634 27.6809 17.8328C27.5035 18.0023 27.2661 18.0943 27.0209 18.0886C26.7756 18.083 26.5427 17.9802 26.3733 17.8028C26.2038 17.6254 26.1118 17.3879 26.1175 17.1427C26.1526 15.6817 25.6958 14.5 24.8137 13.5495C23.9538 12.6267 22.7258 12.0645 21.0393 11.9443H21.0078C20.7626 11.9443 20.5274 11.8469 20.354 11.6735C20.1806 11.5 20.0832 11.2649 20.0832 11.0196C20.0832 10.7744 20.1806 10.5392 20.354 10.3658Z" fill="white"/>
<path d="M20.6061 13.2341C20.7243 13.1958 20.8489 13.1816 20.9727 13.1926C22.0786 13.2517 23.0532 13.6031 23.7688 14.3243C24.4808 15.0456 24.8285 16.0257 24.8877 17.1353C24.8985 17.2589 24.8844 17.3835 24.8461 17.5015C24.8078 17.6196 24.7461 17.7287 24.6647 17.8224C24.5833 17.9161 24.4839 17.9925 24.3724 18.047C24.2609 18.1014 24.1395 18.1329 24.0156 18.1395C23.8917 18.1461 23.7677 18.1276 23.651 18.0853C23.5344 18.0429 23.4274 17.9775 23.3366 17.893C23.2457 17.8084 23.1728 17.7064 23.1222 17.5931C23.0716 17.4798 23.0444 17.3574 23.0421 17.2333C22.9995 16.4437 22.7665 15.9388 22.454 15.6244C22.1433 15.3119 21.6495 15.0789 20.8765 15.0382C20.7523 15.0362 20.6298 15.0092 20.5162 14.9588C20.4027 14.9084 20.3005 14.8356 20.2157 14.7448C20.1309 14.654 20.0652 14.5471 20.0227 14.4304C19.9801 14.3137 19.9615 14.1896 19.968 14.0655C19.9745 13.9415 20.0059 13.82 20.0603 13.7083C20.1148 13.5967 20.1912 13.4971 20.2849 13.4157C20.3787 13.3342 20.4879 13.2724 20.6061 13.2341Z" fill="white"/>
</svg>
